%TF.GenerationSoftware,KiCad,Pcbnew,9.0.0*%
%TF.CreationDate,2025-03-11T18:23:02+02:00*%
%TF.ProjectId,LGS5145 Voltage Regulator,4c475335-3134-4352-9056-6f6c74616765,rev?*%
%TF.SameCoordinates,Original*%
%TF.FileFunction,Soldermask,Top*%
%TF.FilePolarity,Negative*%
%FSLAX46Y46*%
G04 Gerber Fmt 4.6, Leading zero omitted, Abs format (unit mm)*
G04 Created by KiCad (PCBNEW 9.0.0) date 2025-03-11 18:23:02*
%MOMM*%
%LPD*%
G01*
G04 APERTURE LIST*
%ADD10C,2.200000*%
%ADD11R,1.410000X1.350000*%
%ADD12R,0.810000X0.860000*%
%ADD13R,0.860000X0.810000*%
%ADD14R,0.530000X0.990000*%
%ADD15R,2.000000X2.000000*%
%ADD16R,0.800000X0.900000*%
%ADD17R,3.500000X2.350000*%
%ADD18R,0.800000X0.800000*%
%ADD19R,0.900000X0.800000*%
G04 APERTURE END LIST*
D10*
%TO.C,U2*%
X245500000Y-48050000D03*
X240500000Y-48050000D03*
%TD*%
D11*
%TO.C,C1*%
X245450000Y-63400000D03*
X247450000Y-63400000D03*
%TD*%
D12*
%TO.C,R2*%
X250800000Y-70225000D03*
X249300000Y-70225000D03*
%TD*%
D13*
%TO.C,R3*%
X249750000Y-63500000D03*
X249750000Y-65000000D03*
%TD*%
D10*
%TO.C,U3*%
X240500000Y-90600000D03*
X245500000Y-90600000D03*
%TD*%
D13*
%TO.C,R5*%
X250300000Y-85350000D03*
X250300000Y-83850000D03*
%TD*%
D14*
%TO.C,U1*%
X246500000Y-67925000D03*
X247450000Y-67925000D03*
X248400000Y-67925000D03*
X248400000Y-65625000D03*
X247450000Y-65625000D03*
X246500000Y-65625000D03*
%TD*%
D12*
%TO.C,R1*%
X247400000Y-70225000D03*
X245900000Y-70225000D03*
%TD*%
D15*
%TO.C,D1*%
X243400000Y-70250000D03*
X243400000Y-74650000D03*
%TD*%
D16*
%TO.C,C2*%
X247250000Y-72450000D03*
X245850000Y-72450000D03*
%TD*%
D17*
%TO.C,L1*%
X238250000Y-73130000D03*
X238250000Y-67070000D03*
%TD*%
D18*
%TO.C,LED2*%
X252900000Y-85500000D03*
X252900000Y-83800000D03*
%TD*%
%TO.C,LED1*%
X252250000Y-54100000D03*
X252250000Y-55800000D03*
%TD*%
D13*
%TO.C,R4*%
X250000000Y-54100000D03*
X250000000Y-55600000D03*
%TD*%
D19*
%TO.C,C3*%
X244400000Y-67625000D03*
X244400000Y-66225000D03*
%TD*%
%TO.C,C3*%
X213500000Y-67625000D03*
X213500000Y-66225000D03*
%TD*%
D13*
%TO.C,R3*%
X218850000Y-63500000D03*
X218850000Y-65000000D03*
%TD*%
D12*
%TO.C,R2*%
X219900000Y-70225000D03*
X218400000Y-70225000D03*
%TD*%
D11*
%TO.C,C1*%
X214550000Y-63400000D03*
X216550000Y-63400000D03*
%TD*%
D10*
%TO.C,U2*%
X214600000Y-48050000D03*
X209600000Y-48050000D03*
%TD*%
D12*
%TO.C,R1*%
X216500000Y-70225000D03*
X215000000Y-70225000D03*
%TD*%
D13*
%TO.C,R5*%
X219400000Y-85350000D03*
X219400000Y-83850000D03*
%TD*%
D14*
%TO.C,U1*%
X215600000Y-67925000D03*
X216550000Y-67925000D03*
X217500000Y-67925000D03*
X217500000Y-65625000D03*
X216550000Y-65625000D03*
X215600000Y-65625000D03*
%TD*%
D10*
%TO.C,U3*%
X209600000Y-90600000D03*
X214600000Y-90600000D03*
%TD*%
D17*
%TO.C,L1*%
X207350000Y-73130000D03*
X207350000Y-67070000D03*
%TD*%
D18*
%TO.C,LED1*%
X221350000Y-54100000D03*
X221350000Y-55800000D03*
%TD*%
%TO.C,LED2*%
X222000000Y-85500000D03*
X222000000Y-83800000D03*
%TD*%
D13*
%TO.C,R4*%
X219100000Y-54100000D03*
X219100000Y-55600000D03*
%TD*%
D16*
%TO.C,C2*%
X216350000Y-72450000D03*
X214950000Y-72450000D03*
%TD*%
D15*
%TO.C,D1*%
X212500000Y-70250000D03*
X212500000Y-74650000D03*
%TD*%
M02*
