M48
METRIC,TZ
T1C0.300
T2C1.400
%
G90
G05
T1
X209325Y-77325
X210450Y-77275
X210950Y-62450
X211525Y-76800
X211700Y-63050
X212300Y-76150
X212650Y-63350
X215625Y-69025
X216275Y-69000
X218000Y-72500
X218850Y-72350
X219500Y-71850
X219700Y-58450
X220400Y-78650
X220500Y-58450
X220600Y-79450
X221300Y-58450
X221400Y-79050
X240225Y-77325
X241350Y-77275
X241850Y-62450
X242425Y-76800
X242600Y-63050
X243200Y-76150
X243550Y-63350
X246525Y-69025
X247175Y-69000
X248900Y-72500
X249750Y-72350
X250400Y-71850
X250600Y-58450
X251300Y-78650
X251400Y-58450
X251500Y-79450
X252200Y-58450
X252300Y-79050
T2
X209600Y-48050
X209600Y-90600
X214600Y-48050
X214600Y-90600
X240500Y-48050
X240500Y-90600
X245500Y-48050
X245500Y-90600
M30
