%TF.GenerationSoftware,KiCad,Pcbnew,9.0.0*%
%TF.CreationDate,2025-03-11T18:23:02+02:00*%
%TF.ProjectId,LGS5145 Voltage Regulator,4c475335-3134-4352-9056-6f6c74616765,rev?*%
%TF.SameCoordinates,Original*%
%TF.FileFunction,Copper,L1,Top*%
%TF.FilePolarity,Positive*%
%FSLAX46Y46*%
G04 Gerber Fmt 4.6, Leading zero omitted, Abs format (unit mm)*
G04 Created by KiCad (PCBNEW 9.0.0) date 2025-03-11 18:23:02*
%MOMM*%
%LPD*%
G01*
G04 APERTURE LIST*
%TA.AperFunction,ComponentPad*%
%ADD10C,2.200000*%
%TD*%
%TA.AperFunction,SMDPad,CuDef*%
%ADD11R,1.410000X1.350000*%
%TD*%
%TA.AperFunction,SMDPad,CuDef*%
%ADD12R,0.810000X0.860000*%
%TD*%
%TA.AperFunction,SMDPad,CuDef*%
%ADD13R,0.860000X0.810000*%
%TD*%
%TA.AperFunction,SMDPad,CuDef*%
%ADD14R,0.530000X0.990000*%
%TD*%
%TA.AperFunction,SMDPad,CuDef*%
%ADD15R,2.000000X2.000000*%
%TD*%
%TA.AperFunction,SMDPad,CuDef*%
%ADD16R,0.800000X0.900000*%
%TD*%
%TA.AperFunction,SMDPad,CuDef*%
%ADD17R,3.500000X2.350000*%
%TD*%
%TA.AperFunction,SMDPad,CuDef*%
%ADD18R,0.800000X0.800000*%
%TD*%
%TA.AperFunction,SMDPad,CuDef*%
%ADD19R,0.900000X0.800000*%
%TD*%
%TA.AperFunction,ViaPad*%
%ADD20C,0.600000*%
%TD*%
%TA.AperFunction,Conductor*%
%ADD21C,0.400000*%
%TD*%
%TA.AperFunction,Conductor*%
%ADD22C,0.200000*%
%TD*%
%ADD23C,0.300000*%
%ADD24C,0.350000*%
G04 APERTURE END LIST*
D10*
%TO.P,U2,1,1*%
%TO.N,/VIN*%
X245500000Y-48050000D03*
%TO.P,U2,2,2*%
%TO.N,/GND*%
X240500000Y-48050000D03*
%TD*%
D11*
%TO.P,C1,1,1*%
%TO.N,/GND*%
X245450000Y-63400000D03*
%TO.P,C1,2,2*%
%TO.N,/VIN*%
X247450000Y-63400000D03*
%TD*%
D12*
%TO.P,R2,1,1*%
%TO.N,/GND*%
X250800000Y-70225000D03*
%TO.P,R2,2,2*%
%TO.N,Net-(U1-FB)*%
X249300000Y-70225000D03*
%TD*%
D13*
%TO.P,R3,1,1*%
%TO.N,/VIN*%
X249750000Y-63500000D03*
%TO.P,R3,2,2*%
%TO.N,Net-(U1-EN)*%
X249750000Y-65000000D03*
%TD*%
D10*
%TO.P,U3,1,1*%
%TO.N,/GND*%
X240500000Y-90600000D03*
%TO.P,U3,2,2*%
%TO.N,/VOUT*%
X245500000Y-90600000D03*
%TD*%
D13*
%TO.P,R5,1,1*%
%TO.N,Net-(LED2-A)*%
X250300000Y-85350000D03*
%TO.P,R5,2,2*%
%TO.N,/VOUT*%
X250300000Y-83850000D03*
%TD*%
D14*
%TO.P,U1,1,BST*%
%TO.N,Net-(U1-BST)*%
X246500000Y-67925000D03*
%TO.P,U1,2,GND*%
%TO.N,/GND*%
X247450000Y-67925000D03*
%TO.P,U1,3,FB*%
%TO.N,Net-(U1-FB)*%
X248400000Y-67925000D03*
%TO.P,U1,4,EN*%
%TO.N,Net-(U1-EN)*%
X248400000Y-65625000D03*
%TO.P,U1,5,VIN*%
%TO.N,/VIN*%
X247450000Y-65625000D03*
%TO.P,U1,6,SW*%
%TO.N,Net-(D1-K)*%
X246500000Y-65625000D03*
%TD*%
D12*
%TO.P,R1,1,1*%
%TO.N,Net-(U1-FB)*%
X247400000Y-70225000D03*
%TO.P,R1,2,2*%
%TO.N,/VOUT*%
X245900000Y-70225000D03*
%TD*%
D15*
%TO.P,D1,1,K*%
%TO.N,Net-(D1-K)*%
X243400000Y-70250000D03*
%TO.P,D1,2,A*%
%TO.N,/GND*%
X243400000Y-74650000D03*
%TD*%
D16*
%TO.P,C2,1,1*%
%TO.N,/GND*%
X247250000Y-72450000D03*
%TO.P,C2,2,2*%
%TO.N,/VOUT*%
X245850000Y-72450000D03*
%TD*%
D17*
%TO.P,L1,1,1*%
%TO.N,/VOUT*%
X238250000Y-73130000D03*
%TO.P,L1,2,2*%
%TO.N,Net-(D1-K)*%
X238250000Y-67070000D03*
%TD*%
D18*
%TO.P,LED2,1,A*%
%TO.N,Net-(LED2-A)*%
X252900000Y-85500000D03*
%TO.P,LED2,2,K*%
%TO.N,/GND*%
X252900000Y-83800000D03*
%TD*%
%TO.P,LED1,1,A*%
%TO.N,Net-(LED1-A)*%
X252250000Y-54100000D03*
%TO.P,LED1,2,K*%
%TO.N,/GND*%
X252250000Y-55800000D03*
%TD*%
D13*
%TO.P,R4,1,1*%
%TO.N,Net-(LED1-A)*%
X250000000Y-54100000D03*
%TO.P,R4,2,2*%
%TO.N,/VIN*%
X250000000Y-55600000D03*
%TD*%
D19*
%TO.P,C3,1,1*%
%TO.N,Net-(U1-BST)*%
X244400000Y-67625000D03*
%TO.P,C3,2,2*%
%TO.N,Net-(D1-K)*%
X244400000Y-66225000D03*
%TD*%
%TO.P,C3,1,1*%
%TO.N,Net-(U1-BST)*%
X213500000Y-67625000D03*
%TO.P,C3,2,2*%
%TO.N,Net-(D1-K)*%
X213500000Y-66225000D03*
%TD*%
D13*
%TO.P,R3,1,1*%
%TO.N,/VIN*%
X218850000Y-63500000D03*
%TO.P,R3,2,2*%
%TO.N,Net-(U1-EN)*%
X218850000Y-65000000D03*
%TD*%
D12*
%TO.P,R2,1,1*%
%TO.N,/GND*%
X219900000Y-70225000D03*
%TO.P,R2,2,2*%
%TO.N,Net-(U1-FB)*%
X218400000Y-70225000D03*
%TD*%
D11*
%TO.P,C1,1,1*%
%TO.N,/GND*%
X214550000Y-63400000D03*
%TO.P,C1,2,2*%
%TO.N,/VIN*%
X216550000Y-63400000D03*
%TD*%
D10*
%TO.P,U2,1,1*%
%TO.N,/VIN*%
X214600000Y-48050000D03*
%TO.P,U2,2,2*%
%TO.N,/GND*%
X209600000Y-48050000D03*
%TD*%
D12*
%TO.P,R1,1,1*%
%TO.N,Net-(U1-FB)*%
X216500000Y-70225000D03*
%TO.P,R1,2,2*%
%TO.N,/VOUT*%
X215000000Y-70225000D03*
%TD*%
D13*
%TO.P,R5,1,1*%
%TO.N,Net-(LED2-A)*%
X219400000Y-85350000D03*
%TO.P,R5,2,2*%
%TO.N,/VOUT*%
X219400000Y-83850000D03*
%TD*%
D14*
%TO.P,U1,1,BST*%
%TO.N,Net-(U1-BST)*%
X215600000Y-67925000D03*
%TO.P,U1,2,GND*%
%TO.N,/GND*%
X216550000Y-67925000D03*
%TO.P,U1,3,FB*%
%TO.N,Net-(U1-FB)*%
X217500000Y-67925000D03*
%TO.P,U1,4,EN*%
%TO.N,Net-(U1-EN)*%
X217500000Y-65625000D03*
%TO.P,U1,5,VIN*%
%TO.N,/VIN*%
X216550000Y-65625000D03*
%TO.P,U1,6,SW*%
%TO.N,Net-(D1-K)*%
X215600000Y-65625000D03*
%TD*%
D10*
%TO.P,U3,1,1*%
%TO.N,/GND*%
X209600000Y-90600000D03*
%TO.P,U3,2,2*%
%TO.N,/VOUT*%
X214600000Y-90600000D03*
%TD*%
D17*
%TO.P,L1,1,1*%
%TO.N,/VOUT*%
X207350000Y-73130000D03*
%TO.P,L1,2,2*%
%TO.N,Net-(D1-K)*%
X207350000Y-67070000D03*
%TD*%
D18*
%TO.P,LED1,1,A*%
%TO.N,Net-(LED1-A)*%
X221350000Y-54100000D03*
%TO.P,LED1,2,K*%
%TO.N,/GND*%
X221350000Y-55800000D03*
%TD*%
%TO.P,LED2,1,A*%
%TO.N,Net-(LED2-A)*%
X222000000Y-85500000D03*
%TO.P,LED2,2,K*%
%TO.N,/GND*%
X222000000Y-83800000D03*
%TD*%
D13*
%TO.P,R4,1,1*%
%TO.N,Net-(LED1-A)*%
X219100000Y-54100000D03*
%TO.P,R4,2,2*%
%TO.N,/VIN*%
X219100000Y-55600000D03*
%TD*%
D16*
%TO.P,C2,1,1*%
%TO.N,/GND*%
X216350000Y-72450000D03*
%TO.P,C2,2,2*%
%TO.N,/VOUT*%
X214950000Y-72450000D03*
%TD*%
D15*
%TO.P,D1,1,K*%
%TO.N,Net-(D1-K)*%
X212500000Y-70250000D03*
%TO.P,D1,2,A*%
%TO.N,/GND*%
X212500000Y-74650000D03*
%TD*%
D20*
%TO.N,/GND*%
X242600000Y-63050000D03*
X251400000Y-58450000D03*
X249750000Y-72350000D03*
X250600000Y-58450000D03*
X240225000Y-77325000D03*
X252200000Y-58450000D03*
X248900000Y-72500000D03*
X243550000Y-63350000D03*
X241350000Y-77275000D03*
X243200000Y-76150000D03*
X242425000Y-76800000D03*
X251500000Y-79450000D03*
X246525000Y-69025000D03*
X241850000Y-62450000D03*
X250400000Y-71850000D03*
X251300000Y-78650000D03*
X247175000Y-69000000D03*
X252300000Y-79050000D03*
X221300000Y-58450000D03*
X209325000Y-77325000D03*
X218000000Y-72500000D03*
X219700000Y-58450000D03*
X218850000Y-72350000D03*
X220500000Y-58450000D03*
X211700000Y-63050000D03*
X221400000Y-79050000D03*
X216275000Y-69000000D03*
X219500000Y-71850000D03*
X220400000Y-78650000D03*
X211525000Y-76800000D03*
X210950000Y-62450000D03*
X210450000Y-77275000D03*
X215625000Y-69025000D03*
X220600000Y-79450000D03*
X212300000Y-76150000D03*
X212650000Y-63350000D03*
%TD*%
D21*
%TO.N,Net-(LED2-A)*%
X250300000Y-85350000D02*
X252750000Y-85350000D01*
%TO.N,/VIN*%
X245500000Y-52350000D02*
X245500000Y-48050000D01*
%TO.N,/VOUT*%
X248900000Y-83850000D02*
X245450000Y-87300000D01*
%TO.N,/VIN*%
X248750000Y-55600000D02*
X245500000Y-52350000D01*
D22*
%TO.N,Net-(LED2-A)*%
X252750000Y-85350000D02*
X252900000Y-85500000D01*
D21*
%TO.N,Net-(LED1-A)*%
X250000000Y-54100000D02*
X252250000Y-54100000D01*
%TO.N,/VOUT*%
X245450000Y-87300000D02*
X245450000Y-90600000D01*
X250300000Y-83850000D02*
X248900000Y-83850000D01*
%TO.N,/VIN*%
X250000000Y-55600000D02*
X248750000Y-55600000D01*
X217850000Y-55600000D02*
X214600000Y-52350000D01*
X214600000Y-52350000D02*
X214600000Y-48050000D01*
X219100000Y-55600000D02*
X217850000Y-55600000D01*
%TO.N,/VOUT*%
X214550000Y-87300000D02*
X214550000Y-90600000D01*
X219400000Y-83850000D02*
X218000000Y-83850000D01*
X218000000Y-83850000D02*
X214550000Y-87300000D01*
%TO.N,Net-(LED1-A)*%
X219100000Y-54100000D02*
X221350000Y-54100000D01*
D22*
%TO.N,Net-(LED2-A)*%
X221850000Y-85350000D02*
X222000000Y-85500000D01*
D21*
X219400000Y-85350000D02*
X221850000Y-85350000D01*
%TD*%
%TA.AperFunction,Conductor*%
%TO.N,/VOUT*%
G36*
X215518978Y-75869685D02*
G01*
X215538386Y-75885102D01*
X215770741Y-76111051D01*
X215805080Y-76171900D01*
X215808294Y-76200013D01*
X215800295Y-91776064D01*
X215780576Y-91843093D01*
X215727749Y-91888821D01*
X215676295Y-91900000D01*
X213499000Y-91900000D01*
X213431961Y-91880315D01*
X213386206Y-91827511D01*
X213375000Y-91776000D01*
X213375000Y-77745674D01*
X213385555Y-77695612D01*
X214115630Y-76041190D01*
X214127380Y-76027273D01*
X214134842Y-76010654D01*
X214160220Y-75988377D01*
X214160702Y-75987807D01*
X214161367Y-75987371D01*
X214341276Y-75870116D01*
X214360732Y-75864267D01*
X214375000Y-75850000D01*
X215450000Y-75850000D01*
X215451939Y-75850000D01*
X215518978Y-75869685D01*
G37*
%TD.AperFunction*%
%TD*%
%TA.AperFunction,Conductor*%
%TO.N,Net-(D1-K)*%
G36*
X210946564Y-68636251D02*
G01*
X210946565Y-68636252D01*
X211599998Y-69199999D01*
X211600000Y-69200000D01*
X213376000Y-69200000D01*
X213443039Y-69219685D01*
X213488794Y-69272489D01*
X213500000Y-69324000D01*
X213500000Y-71076000D01*
X213480315Y-71143039D01*
X213427511Y-71188794D01*
X213376000Y-71200000D01*
X207451362Y-71200000D01*
X207384323Y-71180315D01*
X207363681Y-71163681D01*
X205136319Y-68936319D01*
X205102834Y-68874996D01*
X205100000Y-68848638D01*
X205100000Y-68100000D01*
X210325000Y-68100000D01*
X210946564Y-68636251D01*
G37*
%TD.AperFunction*%
%TD*%
%TA.AperFunction,Conductor*%
%TO.N,/GND*%
G36*
X221843039Y-55369685D02*
G01*
X221888794Y-55422489D01*
X221900000Y-55474000D01*
X221900000Y-58323638D01*
X221880315Y-58390677D01*
X221863681Y-58411319D01*
X221261319Y-59013681D01*
X221199996Y-59047166D01*
X221173638Y-59050000D01*
X219324000Y-59050000D01*
X219256961Y-59030315D01*
X219211206Y-58977511D01*
X219200000Y-58926000D01*
X219200000Y-57976362D01*
X219219685Y-57909323D01*
X219236319Y-57888681D01*
X220900000Y-56225000D01*
X220900000Y-55474000D01*
X220919685Y-55406961D01*
X220972489Y-55361206D01*
X221024000Y-55350000D01*
X221776000Y-55350000D01*
X221843039Y-55369685D01*
G37*
%TD.AperFunction*%
%TD*%
%TA.AperFunction,Conductor*%
%TO.N,/GND*%
G36*
X220493039Y-69769685D02*
G01*
X220538794Y-69822489D01*
X220550000Y-69874000D01*
X220550000Y-71698638D01*
X220530315Y-71765677D01*
X220513681Y-71786319D01*
X218986319Y-73313681D01*
X218924996Y-73347166D01*
X218898638Y-73350000D01*
X215874000Y-73350000D01*
X215806961Y-73330315D01*
X215761206Y-73277511D01*
X215750000Y-73226000D01*
X215750000Y-71824000D01*
X215769685Y-71756961D01*
X215822489Y-71711206D01*
X215874000Y-71700000D01*
X218487500Y-71700000D01*
X219300000Y-70887500D01*
X219300000Y-70250000D01*
X219300000Y-69874000D01*
X219319685Y-69806961D01*
X219372489Y-69761206D01*
X219424000Y-69750000D01*
X220426000Y-69750000D01*
X220493039Y-69769685D01*
G37*
%TD.AperFunction*%
%TD*%
%TA.AperFunction,Conductor*%
%TO.N,/GND*%
G36*
X221222385Y-78169685D02*
G01*
X221243027Y-78186319D01*
X222220487Y-79163779D01*
X222242018Y-79192735D01*
X223010822Y-80622500D01*
X223025610Y-80681225D01*
X223025610Y-84026000D01*
X223005925Y-84093039D01*
X222953121Y-84138794D01*
X222901610Y-84150000D01*
X221174000Y-84150000D01*
X221106961Y-84130315D01*
X221061206Y-84077511D01*
X221050000Y-84026000D01*
X221050000Y-80684167D01*
X220100359Y-79750353D01*
X220099619Y-79749619D01*
X219936319Y-79586319D01*
X219902834Y-79524996D01*
X219900000Y-79498638D01*
X219900000Y-78274000D01*
X219919685Y-78206961D01*
X219972489Y-78161206D01*
X220024000Y-78150000D01*
X221155346Y-78150000D01*
X221222385Y-78169685D01*
G37*
%TD.AperFunction*%
%TD*%
%TA.AperFunction,Conductor*%
%TO.N,Net-(U1-EN)*%
G36*
X219643039Y-64569685D02*
G01*
X219688794Y-64622489D01*
X219700000Y-64674000D01*
X219700000Y-65498638D01*
X219680315Y-65565677D01*
X219663681Y-65586319D01*
X219136319Y-66113681D01*
X219074996Y-66147166D01*
X219048638Y-66150000D01*
X217324000Y-66150000D01*
X217256961Y-66130315D01*
X217211206Y-66077511D01*
X217200000Y-66026000D01*
X217200000Y-65151362D01*
X217219685Y-65084323D01*
X217236319Y-65063681D01*
X217713681Y-64586319D01*
X217775004Y-64552834D01*
X217801362Y-64550000D01*
X219576000Y-64550000D01*
X219643039Y-64569685D01*
G37*
%TD.AperFunction*%
%TD*%
%TA.AperFunction,Conductor*%
%TO.N,/VOUT*%
G36*
X215393039Y-69744685D02*
G01*
X215438794Y-69797489D01*
X215450000Y-69849000D01*
X215450000Y-75850000D01*
X214375000Y-75850000D01*
X214375000Y-69849000D01*
X214394685Y-69781961D01*
X214447489Y-69736206D01*
X214499000Y-69725000D01*
X215326000Y-69725000D01*
X215393039Y-69744685D01*
G37*
%TD.AperFunction*%
%TD*%
%TA.AperFunction,Conductor*%
%TO.N,/GND*%
G36*
X211696679Y-61719685D02*
G01*
X211698267Y-61720722D01*
X213121160Y-62666209D01*
X215127968Y-62698063D01*
X215194687Y-62718809D01*
X215239598Y-62772332D01*
X215250000Y-62822047D01*
X215250000Y-63976000D01*
X215230315Y-64043039D01*
X215177511Y-64088794D01*
X215126000Y-64100000D01*
X211326362Y-64100000D01*
X211259323Y-64080315D01*
X211238681Y-64063681D01*
X210136319Y-62961319D01*
X210102834Y-62899996D01*
X210100000Y-62873638D01*
X210100000Y-61824000D01*
X210119685Y-61756961D01*
X210172489Y-61711206D01*
X210224000Y-61700000D01*
X211629640Y-61700000D01*
X211696679Y-61719685D01*
G37*
%TD.AperFunction*%
%TD*%
%TA.AperFunction,Conductor*%
%TO.N,Net-(U1-BST)*%
G36*
X214971927Y-67094685D02*
G01*
X214992569Y-67111319D01*
X215281250Y-67400000D01*
X215751000Y-67400000D01*
X215818039Y-67419685D01*
X215863794Y-67472489D01*
X215875000Y-67524000D01*
X215875000Y-68326000D01*
X215855315Y-68393039D01*
X215802511Y-68438794D01*
X215751000Y-68450000D01*
X212974000Y-68450000D01*
X212906961Y-68430315D01*
X212861206Y-68377511D01*
X212850000Y-68326000D01*
X212850000Y-67199000D01*
X212869685Y-67131961D01*
X212922489Y-67086206D01*
X212974000Y-67075000D01*
X214904888Y-67075000D01*
X214971927Y-67094685D01*
G37*
%TD.AperFunction*%
%TD*%
%TA.AperFunction,Conductor*%
%TO.N,/VIN*%
G36*
X215993039Y-46669685D02*
G01*
X216038794Y-46722489D01*
X216050000Y-46774000D01*
X216050000Y-58340811D01*
X216049999Y-58340811D01*
X217044368Y-59494504D01*
X217456722Y-59972928D01*
X217469927Y-59988248D01*
X217498784Y-60051880D01*
X217500000Y-60069203D01*
X217500000Y-64082277D01*
X217500000Y-64326000D01*
X217480315Y-64393039D01*
X217427511Y-64438794D01*
X217376000Y-64450000D01*
X215774000Y-64450000D01*
X215706961Y-64430315D01*
X215661206Y-64377511D01*
X215650000Y-64326000D01*
X215650000Y-62351138D01*
X215649999Y-62351137D01*
X213187852Y-59972928D01*
X213153309Y-59912195D01*
X213150000Y-59883740D01*
X213150000Y-46774000D01*
X213169685Y-46706961D01*
X213222489Y-46661206D01*
X213274000Y-46650000D01*
X215926000Y-46650000D01*
X215993039Y-46669685D01*
G37*
%TD.AperFunction*%
%TD*%
%TA.AperFunction,Conductor*%
%TO.N,Net-(D1-K)*%
G36*
X215776243Y-65174758D02*
G01*
X215843243Y-65194574D01*
X215888895Y-65247467D01*
X215900000Y-65298758D01*
X215900000Y-66151000D01*
X215880315Y-66218039D01*
X215827511Y-66263794D01*
X215776000Y-66275000D01*
X214675000Y-66275000D01*
X214185917Y-66740793D01*
X214123796Y-66772773D01*
X214100400Y-66775000D01*
X212931249Y-66775000D01*
X212252189Y-67454060D01*
X212247729Y-67458305D01*
X210946565Y-68636251D01*
X210946565Y-68636252D01*
X210325000Y-68100000D01*
X205100000Y-68100000D01*
X205100000Y-65902999D01*
X205119685Y-65835960D01*
X205136404Y-65815232D01*
X205653888Y-65298758D01*
X205761254Y-65191601D01*
X205822608Y-65158178D01*
X205849085Y-65155370D01*
X215776243Y-65174758D01*
G37*
%TD.AperFunction*%
%TD*%
%TA.AperFunction,Conductor*%
%TO.N,/GND*%
G36*
X216818039Y-67444685D02*
G01*
X216863794Y-67497489D01*
X216875000Y-67549000D01*
X216875000Y-68861138D01*
X216855315Y-68928177D01*
X216838681Y-68948819D01*
X216473819Y-69313681D01*
X216412496Y-69347166D01*
X216386138Y-69350000D01*
X215388862Y-69350000D01*
X215359421Y-69341355D01*
X215329435Y-69334832D01*
X215324419Y-69331077D01*
X215321823Y-69330315D01*
X215301181Y-69313681D01*
X215161319Y-69173819D01*
X215127834Y-69112496D01*
X215125000Y-69086138D01*
X215125000Y-68998237D01*
X215144685Y-68931198D01*
X215161319Y-68910556D01*
X215335556Y-68736319D01*
X215396879Y-68702834D01*
X215423237Y-68700000D01*
X215906250Y-68700000D01*
X216200000Y-68406250D01*
X216200000Y-67549000D01*
X216219685Y-67481961D01*
X216272489Y-67436206D01*
X216324000Y-67425000D01*
X216751000Y-67425000D01*
X216818039Y-67444685D01*
G37*
%TD.AperFunction*%
%TD*%
%TA.AperFunction,Conductor*%
%TO.N,/VIN*%
G36*
X219200917Y-63079675D02*
G01*
X219262634Y-63112430D01*
X219296845Y-63173351D01*
X219300000Y-63201146D01*
X219300000Y-63787922D01*
X219280315Y-63854961D01*
X219227511Y-63900716D01*
X219188493Y-63911291D01*
X217500000Y-64082277D01*
X217500000Y-62730769D01*
X219200917Y-63079675D01*
G37*
%TD.AperFunction*%
%TD*%
%TA.AperFunction,Conductor*%
%TO.N,/VIN*%
G36*
X216850000Y-64574999D02*
G01*
X216850000Y-65976000D01*
X216830315Y-66043039D01*
X216777511Y-66088794D01*
X216726000Y-66100000D01*
X216374000Y-66100000D01*
X216306961Y-66080315D01*
X216261206Y-66027511D01*
X216250000Y-65976000D01*
X216250000Y-64575000D01*
X216125000Y-64450000D01*
X216974999Y-64450000D01*
X216850000Y-64574999D01*
G37*
%TD.AperFunction*%
%TD*%
%TA.AperFunction,Conductor*%
%TO.N,Net-(U1-FB)*%
G36*
X217793039Y-67344685D02*
G01*
X217838794Y-67397489D01*
X217850000Y-67449000D01*
X217850000Y-69750000D01*
X218701000Y-69750000D01*
X218768039Y-69769685D01*
X218813794Y-69822489D01*
X218825000Y-69874000D01*
X218825000Y-70601000D01*
X218805315Y-70668039D01*
X218752511Y-70713794D01*
X218701000Y-70725000D01*
X216174000Y-70725000D01*
X216106961Y-70705315D01*
X216061206Y-70652511D01*
X216050000Y-70601000D01*
X216050000Y-69849000D01*
X216069685Y-69781961D01*
X216122489Y-69736206D01*
X216174000Y-69725000D01*
X217150000Y-69725000D01*
X217150000Y-67449000D01*
X217169685Y-67381961D01*
X217222489Y-67336206D01*
X217274000Y-67325000D01*
X217726000Y-67325000D01*
X217793039Y-67344685D01*
G37*
%TD.AperFunction*%
%TD*%
%TA.AperFunction,Conductor*%
%TO.N,/VOUT*%
G36*
X214375000Y-73250000D02*
G01*
X210387500Y-73250000D01*
X210387499Y-73250000D01*
X209857838Y-73762934D01*
X209236061Y-74365077D01*
X209174211Y-74397573D01*
X209149800Y-74400000D01*
X205524000Y-74400000D01*
X205456961Y-74380315D01*
X205411206Y-74327511D01*
X205400000Y-74276000D01*
X205400000Y-71974000D01*
X205419685Y-71906961D01*
X205472489Y-71861206D01*
X205524000Y-71850000D01*
X214375000Y-71850000D01*
X214375000Y-73250000D01*
G37*
%TD.AperFunction*%
%TD*%
%TA.AperFunction,Conductor*%
%TO.N,/GND*%
G36*
X213543039Y-73619685D02*
G01*
X213588794Y-73672489D01*
X213600000Y-73724000D01*
X213600000Y-75719258D01*
X213585640Y-75777181D01*
X213383744Y-76159339D01*
X213375234Y-76173171D01*
X212187069Y-77847755D01*
X212132221Y-77891039D01*
X212085939Y-77900000D01*
X208524000Y-77900000D01*
X208456961Y-77880315D01*
X208411206Y-77827511D01*
X208400000Y-77776000D01*
X208400000Y-76724000D01*
X208419685Y-76656961D01*
X208472489Y-76611206D01*
X208524000Y-76600000D01*
X210450000Y-76600000D01*
X211028663Y-75750000D01*
X211400000Y-75204542D01*
X211400000Y-73724000D01*
X211419685Y-73656961D01*
X211472489Y-73611206D01*
X211524000Y-73600000D01*
X213476000Y-73600000D01*
X213543039Y-73619685D01*
G37*
%TD.AperFunction*%
%TD*%
%TA.AperFunction,Conductor*%
%TO.N,/GND*%
G36*
X244443039Y-73619685D02*
G01*
X244488794Y-73672489D01*
X244500000Y-73724000D01*
X244500000Y-75719258D01*
X244485640Y-75777181D01*
X244283744Y-76159339D01*
X244275234Y-76173171D01*
X243087069Y-77847755D01*
X243032221Y-77891039D01*
X242985939Y-77900000D01*
X239424000Y-77900000D01*
X239356961Y-77880315D01*
X239311206Y-77827511D01*
X239300000Y-77776000D01*
X239300000Y-76724000D01*
X239319685Y-76656961D01*
X239372489Y-76611206D01*
X239424000Y-76600000D01*
X241350000Y-76600000D01*
X241928663Y-75750000D01*
X242300000Y-75204542D01*
X242300000Y-73724000D01*
X242319685Y-73656961D01*
X242372489Y-73611206D01*
X242424000Y-73600000D01*
X244376000Y-73600000D01*
X244443039Y-73619685D01*
G37*
%TD.AperFunction*%
%TD*%
%TA.AperFunction,Conductor*%
%TO.N,Net-(U1-EN)*%
G36*
X250543039Y-64569685D02*
G01*
X250588794Y-64622489D01*
X250600000Y-64674000D01*
X250600000Y-65498638D01*
X250580315Y-65565677D01*
X250563681Y-65586319D01*
X250036319Y-66113681D01*
X249974996Y-66147166D01*
X249948638Y-66150000D01*
X248224000Y-66150000D01*
X248156961Y-66130315D01*
X248111206Y-66077511D01*
X248100000Y-66026000D01*
X248100000Y-65151362D01*
X248119685Y-65084323D01*
X248136319Y-65063681D01*
X248613681Y-64586319D01*
X248675004Y-64552834D01*
X248701362Y-64550000D01*
X250476000Y-64550000D01*
X250543039Y-64569685D01*
G37*
%TD.AperFunction*%
%TD*%
%TA.AperFunction,Conductor*%
%TO.N,/GND*%
G36*
X252743039Y-55369685D02*
G01*
X252788794Y-55422489D01*
X252800000Y-55474000D01*
X252800000Y-58323638D01*
X252780315Y-58390677D01*
X252763681Y-58411319D01*
X252161319Y-59013681D01*
X252099996Y-59047166D01*
X252073638Y-59050000D01*
X250224000Y-59050000D01*
X250156961Y-59030315D01*
X250111206Y-58977511D01*
X250100000Y-58926000D01*
X250100000Y-57976362D01*
X250119685Y-57909323D01*
X250136319Y-57888681D01*
X251800000Y-56225000D01*
X251800000Y-55474000D01*
X251819685Y-55406961D01*
X251872489Y-55361206D01*
X251924000Y-55350000D01*
X252676000Y-55350000D01*
X252743039Y-55369685D01*
G37*
%TD.AperFunction*%
%TD*%
%TA.AperFunction,Conductor*%
%TO.N,/VIN*%
G36*
X246893039Y-46669685D02*
G01*
X246938794Y-46722489D01*
X246950000Y-46774000D01*
X246950000Y-58340811D01*
X246949999Y-58340811D01*
X247944368Y-59494504D01*
X248356722Y-59972928D01*
X248369927Y-59988248D01*
X248398784Y-60051880D01*
X248400000Y-60069203D01*
X248400000Y-64082277D01*
X248400000Y-64326000D01*
X248380315Y-64393039D01*
X248327511Y-64438794D01*
X248276000Y-64450000D01*
X246674000Y-64450000D01*
X246606961Y-64430315D01*
X246561206Y-64377511D01*
X246550000Y-64326000D01*
X246550000Y-62351138D01*
X246549999Y-62351137D01*
X244087852Y-59972928D01*
X244053309Y-59912195D01*
X244050000Y-59883740D01*
X244050000Y-46774000D01*
X244069685Y-46706961D01*
X244122489Y-46661206D01*
X244174000Y-46650000D01*
X246826000Y-46650000D01*
X246893039Y-46669685D01*
G37*
%TD.AperFunction*%
%TD*%
%TA.AperFunction,Conductor*%
%TO.N,Net-(U1-BST)*%
G36*
X245871927Y-67094685D02*
G01*
X245892569Y-67111319D01*
X246181250Y-67400000D01*
X246651000Y-67400000D01*
X246718039Y-67419685D01*
X246763794Y-67472489D01*
X246775000Y-67524000D01*
X246775000Y-68326000D01*
X246755315Y-68393039D01*
X246702511Y-68438794D01*
X246651000Y-68450000D01*
X243874000Y-68450000D01*
X243806961Y-68430315D01*
X243761206Y-68377511D01*
X243750000Y-68326000D01*
X243750000Y-67199000D01*
X243769685Y-67131961D01*
X243822489Y-67086206D01*
X243874000Y-67075000D01*
X245804888Y-67075000D01*
X245871927Y-67094685D01*
G37*
%TD.AperFunction*%
%TD*%
%TA.AperFunction,Conductor*%
%TO.N,/GND*%
G36*
X252122385Y-78169685D02*
G01*
X252143027Y-78186319D01*
X253120487Y-79163779D01*
X253142018Y-79192735D01*
X253910822Y-80622500D01*
X253925610Y-80681225D01*
X253925610Y-84026000D01*
X253905925Y-84093039D01*
X253853121Y-84138794D01*
X253801610Y-84150000D01*
X252074000Y-84150000D01*
X252006961Y-84130315D01*
X251961206Y-84077511D01*
X251950000Y-84026000D01*
X251950000Y-80684167D01*
X251000359Y-79750353D01*
X250999619Y-79749619D01*
X250836319Y-79586319D01*
X250802834Y-79524996D01*
X250800000Y-79498638D01*
X250800000Y-78274000D01*
X250819685Y-78206961D01*
X250872489Y-78161206D01*
X250924000Y-78150000D01*
X252055346Y-78150000D01*
X252122385Y-78169685D01*
G37*
%TD.AperFunction*%
%TD*%
%TA.AperFunction,Conductor*%
%TO.N,/VOUT*%
G36*
X246293039Y-69744685D02*
G01*
X246338794Y-69797489D01*
X246350000Y-69849000D01*
X246350000Y-75850000D01*
X245275000Y-75850000D01*
X245275000Y-69849000D01*
X245294685Y-69781961D01*
X245347489Y-69736206D01*
X245399000Y-69725000D01*
X246226000Y-69725000D01*
X246293039Y-69744685D01*
G37*
%TD.AperFunction*%
%TD*%
%TA.AperFunction,Conductor*%
%TO.N,/GND*%
G36*
X251393039Y-69769685D02*
G01*
X251438794Y-69822489D01*
X251450000Y-69874000D01*
X251450000Y-71698638D01*
X251430315Y-71765677D01*
X251413681Y-71786319D01*
X249886319Y-73313681D01*
X249824996Y-73347166D01*
X249798638Y-73350000D01*
X246774000Y-73350000D01*
X246706961Y-73330315D01*
X246661206Y-73277511D01*
X246650000Y-73226000D01*
X246650000Y-71824000D01*
X246669685Y-71756961D01*
X246722489Y-71711206D01*
X246774000Y-71700000D01*
X249387500Y-71700000D01*
X250200000Y-70887500D01*
X250200000Y-70250000D01*
X250200000Y-69874000D01*
X250219685Y-69806961D01*
X250272489Y-69761206D01*
X250324000Y-69750000D01*
X251326000Y-69750000D01*
X251393039Y-69769685D01*
G37*
%TD.AperFunction*%
%TD*%
%TA.AperFunction,Conductor*%
%TO.N,/GND*%
G36*
X242596679Y-61719685D02*
G01*
X242598267Y-61720722D01*
X244021160Y-62666209D01*
X246027968Y-62698063D01*
X246094687Y-62718809D01*
X246139598Y-62772332D01*
X246150000Y-62822047D01*
X246150000Y-63976000D01*
X246130315Y-64043039D01*
X246077511Y-64088794D01*
X246026000Y-64100000D01*
X242226362Y-64100000D01*
X242159323Y-64080315D01*
X242138681Y-64063681D01*
X241036319Y-62961319D01*
X241002834Y-62899996D01*
X241000000Y-62873638D01*
X241000000Y-61824000D01*
X241019685Y-61756961D01*
X241072489Y-61711206D01*
X241124000Y-61700000D01*
X242529640Y-61700000D01*
X242596679Y-61719685D01*
G37*
%TD.AperFunction*%
%TD*%
%TA.AperFunction,Conductor*%
%TO.N,Net-(D1-K)*%
G36*
X241846564Y-68636251D02*
G01*
X241846565Y-68636252D01*
X242499998Y-69199999D01*
X242500000Y-69200000D01*
X244276000Y-69200000D01*
X244343039Y-69219685D01*
X244388794Y-69272489D01*
X244400000Y-69324000D01*
X244400000Y-71076000D01*
X244380315Y-71143039D01*
X244327511Y-71188794D01*
X244276000Y-71200000D01*
X238351362Y-71200000D01*
X238284323Y-71180315D01*
X238263681Y-71163681D01*
X236036319Y-68936319D01*
X236002834Y-68874996D01*
X236000000Y-68848638D01*
X236000000Y-68100000D01*
X241225000Y-68100000D01*
X241846564Y-68636251D01*
G37*
%TD.AperFunction*%
%TD*%
%TA.AperFunction,Conductor*%
%TO.N,/VIN*%
G36*
X250100917Y-63079675D02*
G01*
X250162634Y-63112430D01*
X250196845Y-63173351D01*
X250200000Y-63201146D01*
X250200000Y-63787922D01*
X250180315Y-63854961D01*
X250127511Y-63900716D01*
X250088493Y-63911291D01*
X248400000Y-64082277D01*
X248400000Y-62730769D01*
X250100917Y-63079675D01*
G37*
%TD.AperFunction*%
%TD*%
%TA.AperFunction,Conductor*%
%TO.N,/VIN*%
G36*
X247750000Y-64574999D02*
G01*
X247750000Y-65976000D01*
X247730315Y-66043039D01*
X247677511Y-66088794D01*
X247626000Y-66100000D01*
X247274000Y-66100000D01*
X247206961Y-66080315D01*
X247161206Y-66027511D01*
X247150000Y-65976000D01*
X247150000Y-64575000D01*
X247025000Y-64450000D01*
X247874999Y-64450000D01*
X247750000Y-64574999D01*
G37*
%TD.AperFunction*%
%TD*%
%TA.AperFunction,Conductor*%
%TO.N,Net-(U1-FB)*%
G36*
X248693039Y-67344685D02*
G01*
X248738794Y-67397489D01*
X248750000Y-67449000D01*
X248750000Y-69750000D01*
X249601000Y-69750000D01*
X249668039Y-69769685D01*
X249713794Y-69822489D01*
X249725000Y-69874000D01*
X249725000Y-70601000D01*
X249705315Y-70668039D01*
X249652511Y-70713794D01*
X249601000Y-70725000D01*
X247074000Y-70725000D01*
X247006961Y-70705315D01*
X246961206Y-70652511D01*
X246950000Y-70601000D01*
X246950000Y-69849000D01*
X246969685Y-69781961D01*
X247022489Y-69736206D01*
X247074000Y-69725000D01*
X248050000Y-69725000D01*
X248050000Y-67449000D01*
X248069685Y-67381961D01*
X248122489Y-67336206D01*
X248174000Y-67325000D01*
X248626000Y-67325000D01*
X248693039Y-67344685D01*
G37*
%TD.AperFunction*%
%TD*%
%TA.AperFunction,Conductor*%
%TO.N,/VOUT*%
G36*
X246418978Y-75869685D02*
G01*
X246438386Y-75885102D01*
X246670741Y-76111051D01*
X246705080Y-76171900D01*
X246708294Y-76200013D01*
X246700295Y-91776064D01*
X246680576Y-91843093D01*
X246627749Y-91888821D01*
X246576295Y-91900000D01*
X244399000Y-91900000D01*
X244331961Y-91880315D01*
X244286206Y-91827511D01*
X244275000Y-91776000D01*
X244275000Y-77745674D01*
X244285555Y-77695612D01*
X245015630Y-76041190D01*
X245027380Y-76027273D01*
X245034842Y-76010654D01*
X245060220Y-75988377D01*
X245060702Y-75987807D01*
X245061367Y-75987371D01*
X245241276Y-75870116D01*
X245260732Y-75864267D01*
X245275000Y-75850000D01*
X246350000Y-75850000D01*
X246351939Y-75850000D01*
X246418978Y-75869685D01*
G37*
%TD.AperFunction*%
%TD*%
%TA.AperFunction,Conductor*%
%TO.N,/GND*%
G36*
X247718039Y-67444685D02*
G01*
X247763794Y-67497489D01*
X247775000Y-67549000D01*
X247775000Y-68861138D01*
X247755315Y-68928177D01*
X247738681Y-68948819D01*
X247373819Y-69313681D01*
X247312496Y-69347166D01*
X247286138Y-69350000D01*
X246288862Y-69350000D01*
X246259421Y-69341355D01*
X246229435Y-69334832D01*
X246224419Y-69331077D01*
X246221823Y-69330315D01*
X246201181Y-69313681D01*
X246061319Y-69173819D01*
X246027834Y-69112496D01*
X246025000Y-69086138D01*
X246025000Y-68998237D01*
X246044685Y-68931198D01*
X246061319Y-68910556D01*
X246235556Y-68736319D01*
X246296879Y-68702834D01*
X246323237Y-68700000D01*
X246806250Y-68700000D01*
X247100000Y-68406250D01*
X247100000Y-67549000D01*
X247119685Y-67481961D01*
X247172489Y-67436206D01*
X247224000Y-67425000D01*
X247651000Y-67425000D01*
X247718039Y-67444685D01*
G37*
%TD.AperFunction*%
%TD*%
%TA.AperFunction,Conductor*%
%TO.N,Net-(D1-K)*%
G36*
X246676243Y-65174758D02*
G01*
X246743243Y-65194574D01*
X246788895Y-65247467D01*
X246800000Y-65298758D01*
X246800000Y-66151000D01*
X246780315Y-66218039D01*
X246727511Y-66263794D01*
X246676000Y-66275000D01*
X245575000Y-66275000D01*
X245085917Y-66740793D01*
X245023796Y-66772773D01*
X245000400Y-66775000D01*
X243831249Y-66775000D01*
X243152189Y-67454060D01*
X243147729Y-67458305D01*
X241846565Y-68636251D01*
X241846565Y-68636252D01*
X241225000Y-68100000D01*
X236000000Y-68100000D01*
X236000000Y-65902999D01*
X236019685Y-65835960D01*
X236036404Y-65815232D01*
X236553888Y-65298758D01*
X236661254Y-65191601D01*
X236722608Y-65158178D01*
X236749085Y-65155370D01*
X246676243Y-65174758D01*
G37*
%TD.AperFunction*%
%TD*%
%TA.AperFunction,Conductor*%
%TO.N,/VOUT*%
G36*
X245275000Y-73250000D02*
G01*
X241287500Y-73250000D01*
X241287499Y-73250000D01*
X240757838Y-73762934D01*
X240136061Y-74365077D01*
X240074211Y-74397573D01*
X240049800Y-74400000D01*
X236424000Y-74400000D01*
X236356961Y-74380315D01*
X236311206Y-74327511D01*
X236300000Y-74276000D01*
X236300000Y-71974000D01*
X236319685Y-71906961D01*
X236372489Y-71861206D01*
X236424000Y-71850000D01*
X245275000Y-71850000D01*
X245275000Y-73250000D01*
G37*
%TD.AperFunction*%
%TD*%
D23*
X242600000Y-63050000D03*
X251400000Y-58450000D03*
X249750000Y-72350000D03*
X250600000Y-58450000D03*
X240225000Y-77325000D03*
X252200000Y-58450000D03*
X248900000Y-72500000D03*
X243550000Y-63350000D03*
X241350000Y-77275000D03*
X243200000Y-76150000D03*
X242425000Y-76800000D03*
X251500000Y-79450000D03*
X246525000Y-69025000D03*
X241850000Y-62450000D03*
X250400000Y-71850000D03*
X251300000Y-78650000D03*
X247175000Y-69000000D03*
X252300000Y-79050000D03*
X221300000Y-58450000D03*
X209325000Y-77325000D03*
X218000000Y-72500000D03*
X219700000Y-58450000D03*
X218850000Y-72350000D03*
X220500000Y-58450000D03*
X211700000Y-63050000D03*
X221400000Y-79050000D03*
X216275000Y-69000000D03*
X219500000Y-71850000D03*
X220400000Y-78650000D03*
X211525000Y-76800000D03*
X210950000Y-62450000D03*
X210450000Y-77275000D03*
X215625000Y-69025000D03*
X220600000Y-79450000D03*
X212300000Y-76150000D03*
X212650000Y-63350000D03*
D24*
X245500000Y-48050000D03*
X240500000Y-48050000D03*
X240500000Y-90600000D03*
X245500000Y-90600000D03*
X214600000Y-48050000D03*
X209600000Y-48050000D03*
X209600000Y-90600000D03*
X214600000Y-90600000D03*
M02*
