%TF.GenerationSoftware,KiCad,Pcbnew,9.0.0-1.fc41*%
%TF.CreationDate,2025-02-24T21:26:29+02:00*%
%TF.ProjectId,LGS5145 Voltage Regulator,4c475335-3134-4352-9056-6f6c74616765,rev?*%
%TF.SameCoordinates,Original*%
%TF.FileFunction,Soldermask,Top*%
%TF.FilePolarity,Negative*%
%FSLAX46Y46*%
G04 Gerber Fmt 4.6, Leading zero omitted, Abs format (unit mm)*
G04 Created by KiCad (PCBNEW 9.0.0-1.fc41) date 2025-02-24 21:26:29*
%MOMM*%
%LPD*%
G01*
G04 APERTURE LIST*
%ADD10R,0.530000X0.990000*%
%ADD11R,0.860000X0.810000*%
%ADD12R,0.810000X0.860000*%
%ADD13R,0.900000X0.800000*%
%ADD14R,1.410000X1.350000*%
%ADD15R,3.500000X2.350000*%
%ADD16R,2.000000X2.000000*%
%ADD17R,0.800000X0.900000*%
%ADD18R,0.800000X0.800000*%
%ADD19C,2.200000*%
G04 APERTURE END LIST*
D10*
%TO.C,U1*%
X215600000Y-65625000D03*
X216550000Y-65625000D03*
X217500000Y-65625000D03*
X217500000Y-67925000D03*
X216550000Y-67925000D03*
X215600000Y-67925000D03*
%TD*%
D11*
%TO.C,R3*%
X218850000Y-65000000D03*
X218850000Y-63500000D03*
%TD*%
D12*
%TO.C,R1*%
X215000000Y-70225000D03*
X216500000Y-70225000D03*
%TD*%
D13*
%TO.C,C3*%
X213500000Y-66225000D03*
X213500000Y-67625000D03*
%TD*%
D14*
%TO.C,C1*%
X216550000Y-63400000D03*
X214550000Y-63400000D03*
%TD*%
D15*
%TO.C,L1*%
X207350000Y-67070000D03*
X207350000Y-73130000D03*
%TD*%
D16*
%TO.C,D1*%
X212500000Y-74650000D03*
X212500000Y-70250000D03*
%TD*%
D12*
%TO.C,R2*%
X218400000Y-70225000D03*
X219900000Y-70225000D03*
%TD*%
D17*
%TO.C,C2*%
X214950000Y-72450000D03*
X216350000Y-72450000D03*
%TD*%
D11*
%TO.C,R4*%
X219100000Y-54100000D03*
X219100000Y-55600000D03*
%TD*%
D18*
%TO.C,LED2*%
X222000000Y-85500000D03*
X222000000Y-83800000D03*
%TD*%
D11*
%TO.C,R5*%
X219400000Y-85350000D03*
X219400000Y-83850000D03*
%TD*%
D19*
%TO.C,U3*%
X209600000Y-90600000D03*
X214600000Y-90600000D03*
%TD*%
%TO.C,U2*%
X214600000Y-48050000D03*
X209600000Y-48050000D03*
%TD*%
D18*
%TO.C,LED1*%
X221350000Y-54100000D03*
X221350000Y-55800000D03*
%TD*%
D16*
%TO.C,D1*%
X185900000Y-73150000D03*
X190300000Y-73150000D03*
%TD*%
D14*
%TO.C,C1*%
X187950000Y-63350000D03*
X189950000Y-63350000D03*
%TD*%
D13*
%TO.C,C3*%
X186900000Y-66175000D03*
X186900000Y-67575000D03*
%TD*%
D12*
%TO.C,R1*%
X189900000Y-70175000D03*
X188400000Y-70175000D03*
%TD*%
D17*
%TO.C,C2*%
X188200000Y-76575000D03*
X189600000Y-76575000D03*
%TD*%
D12*
%TO.C,R2*%
X193300000Y-70175000D03*
X191800000Y-70175000D03*
%TD*%
D11*
%TO.C,R3*%
X192250000Y-63450000D03*
X192250000Y-64950000D03*
%TD*%
D10*
%TO.C,U1*%
X189000000Y-65575000D03*
X189950000Y-65575000D03*
X190900000Y-65575000D03*
X190900000Y-67875000D03*
X189950000Y-67875000D03*
X189000000Y-67875000D03*
%TD*%
D15*
%TO.C,L1*%
X180400000Y-67700000D03*
X180400000Y-73760000D03*
%TD*%
D18*
%TO.C,LED1*%
X194750000Y-55750000D03*
X194750000Y-54050000D03*
%TD*%
D19*
%TO.C,U2*%
X188000000Y-48000000D03*
X183000000Y-48000000D03*
%TD*%
D11*
%TO.C,R5*%
X192800000Y-83800000D03*
X192800000Y-85300000D03*
%TD*%
%TO.C,R4*%
X192500000Y-55550000D03*
X192500000Y-54050000D03*
%TD*%
D18*
%TO.C,LED2*%
X195400000Y-85450000D03*
X195400000Y-83750000D03*
%TD*%
D19*
%TO.C,U3*%
X183000000Y-90550000D03*
X188000000Y-90550000D03*
%TD*%
M02*
