%TF.GenerationSoftware,KiCad,Pcbnew,9.0.0*%
%TF.CreationDate,2025-03-11T18:23:02+02:00*%
%TF.ProjectId,LGS5145 Voltage Regulator,4c475335-3134-4352-9056-6f6c74616765,rev?*%
%TF.SameCoordinates,Original*%
%TF.FileFunction,Profile,NP*%
%FSLAX46Y46*%
G04 Gerber Fmt 4.6, Leading zero omitted, Abs format (unit mm)*
G04 Created by KiCad (PCBNEW 9.0.0) date 2025-03-11 18:23:02*
%MOMM*%
%LPD*%
G01*
G04 APERTURE LIST*
%TA.AperFunction,Profile*%
%ADD10C,0.050000*%
%TD*%
%ADD11C,0.350000*%
G04 APERTURE END LIST*
D10*
X224846700Y-50075000D02*
G75*
G02*
X224375000Y-50075000I-235850J0D01*
G01*
X224375000Y-50075000D02*
G75*
G02*
X224846700Y-50075000I235850J0D01*
G01*
X224846700Y-49300000D02*
G75*
G02*
X224375000Y-49300000I-235850J0D01*
G01*
X224375000Y-49300000D02*
G75*
G02*
X224846700Y-49300000I235850J0D01*
G01*
X224846700Y-48550000D02*
G75*
G02*
X224375000Y-48550000I-235850J0D01*
G01*
X224375000Y-48550000D02*
G75*
G02*
X224846700Y-48550000I235850J0D01*
G01*
X230710850Y-49285850D02*
G75*
G02*
X230239150Y-49285850I-235850J0D01*
G01*
X230239150Y-49285850D02*
G75*
G02*
X230710850Y-49285850I235850J0D01*
G01*
X230710850Y-48535850D02*
G75*
G02*
X230239150Y-48535850I-235850J0D01*
G01*
X230239150Y-48535850D02*
G75*
G02*
X230710850Y-48535850I235850J0D01*
G01*
X230710850Y-50060850D02*
G75*
G02*
X230239150Y-50060850I-235850J0D01*
G01*
X230239150Y-50060850D02*
G75*
G02*
X230710850Y-50060850I235850J0D01*
G01*
X224846700Y-84275000D02*
G75*
G02*
X224375000Y-84275000I-235850J0D01*
G01*
X224375000Y-84275000D02*
G75*
G02*
X224846700Y-84275000I235850J0D01*
G01*
X224846700Y-83525000D02*
G75*
G02*
X224375000Y-83525000I-235850J0D01*
G01*
X224375000Y-83525000D02*
G75*
G02*
X224846700Y-83525000I235850J0D01*
G01*
X224846700Y-85050000D02*
G75*
G02*
X224375000Y-85050000I-235850J0D01*
G01*
X224375000Y-85050000D02*
G75*
G02*
X224846700Y-85050000I235850J0D01*
G01*
X230735850Y-85064150D02*
G75*
G02*
X230264150Y-85064150I-235850J0D01*
G01*
X230264150Y-85064150D02*
G75*
G02*
X230735850Y-85064150I235850J0D01*
G01*
X230735850Y-84289150D02*
G75*
G02*
X230264150Y-84289150I-235850J0D01*
G01*
X230264150Y-84289150D02*
G75*
G02*
X230735850Y-84289150I235850J0D01*
G01*
X230735850Y-83539150D02*
G75*
G02*
X230264150Y-83539150I-235850J0D01*
G01*
X230264150Y-83539150D02*
G75*
G02*
X230735850Y-83539150I235850J0D01*
G01*
X224075000Y-83050000D02*
X231025000Y-83050000D01*
X231025000Y-85550000D01*
X224075000Y-85550000D01*
X224075000Y-83050000D01*
X224250000Y-48050000D02*
X230750000Y-48050000D01*
X230750000Y-50550000D01*
X224250000Y-50550000D01*
X224250000Y-48050000D01*
X230500000Y-44350000D02*
X255500000Y-44350000D01*
X255500000Y-94350000D01*
X230500000Y-94350000D01*
X230500000Y-44350000D01*
X199600000Y-44350000D02*
X224600000Y-44350000D01*
X224600000Y-94350000D01*
X199600000Y-94350000D01*
X199600000Y-44350000D01*
D11*
X245500000Y-48050000D03*
X240500000Y-48050000D03*
X240500000Y-90600000D03*
X245500000Y-90600000D03*
X214600000Y-48050000D03*
X209600000Y-48050000D03*
X209600000Y-90600000D03*
X214600000Y-90600000D03*
M02*
