%TF.GenerationSoftware,KiCad,Pcbnew,9.0.0-1.fc41*%
%TF.CreationDate,2025-02-24T21:26:29+02:00*%
%TF.ProjectId,LGS5145 Voltage Regulator,4c475335-3134-4352-9056-6f6c74616765,rev?*%
%TF.SameCoordinates,Original*%
%TF.FileFunction,Copper,L1,Top*%
%TF.FilePolarity,Positive*%
%FSLAX46Y46*%
G04 Gerber Fmt 4.6, Leading zero omitted, Abs format (unit mm)*
G04 Created by KiCad (PCBNEW 9.0.0-1.fc41) date 2025-02-24 21:26:29*
%MOMM*%
%LPD*%
G01*
G04 APERTURE LIST*
%TA.AperFunction,SMDPad,CuDef*%
%ADD10R,0.530000X0.990000*%
%TD*%
%TA.AperFunction,SMDPad,CuDef*%
%ADD11R,0.860000X0.810000*%
%TD*%
%TA.AperFunction,SMDPad,CuDef*%
%ADD12R,0.810000X0.860000*%
%TD*%
%TA.AperFunction,SMDPad,CuDef*%
%ADD13R,0.900000X0.800000*%
%TD*%
%TA.AperFunction,SMDPad,CuDef*%
%ADD14R,1.410000X1.350000*%
%TD*%
%TA.AperFunction,SMDPad,CuDef*%
%ADD15R,3.500000X2.350000*%
%TD*%
%TA.AperFunction,SMDPad,CuDef*%
%ADD16R,2.000000X2.000000*%
%TD*%
%TA.AperFunction,SMDPad,CuDef*%
%ADD17R,0.800000X0.900000*%
%TD*%
%TA.AperFunction,SMDPad,CuDef*%
%ADD18R,0.800000X0.800000*%
%TD*%
%TA.AperFunction,ComponentPad*%
%ADD19C,2.200000*%
%TD*%
%TA.AperFunction,ViaPad*%
%ADD20C,0.600000*%
%TD*%
%TA.AperFunction,Conductor*%
%ADD21C,0.400000*%
%TD*%
%TA.AperFunction,Conductor*%
%ADD22C,0.200000*%
%TD*%
%ADD23C,0.300000*%
%ADD24C,0.350000*%
G04 APERTURE END LIST*
D10*
%TO.P,U1,6,SW*%
%TO.N,Net-(D1-K)*%
X215600000Y-65625000D03*
%TO.P,U1,5,VIN*%
%TO.N,/VIN*%
X216550000Y-65625000D03*
%TO.P,U1,4,EN*%
%TO.N,Net-(U1-EN)*%
X217500000Y-65625000D03*
%TO.P,U1,3,FB*%
%TO.N,Net-(U1-FB)*%
X217500000Y-67925000D03*
%TO.P,U1,2,GND*%
%TO.N,/GND*%
X216550000Y-67925000D03*
%TO.P,U1,1,BST*%
%TO.N,Net-(U1-BST)*%
X215600000Y-67925000D03*
%TD*%
D11*
%TO.P,R3,2,2*%
%TO.N,Net-(U1-EN)*%
X218850000Y-65000000D03*
%TO.P,R3,1,1*%
%TO.N,/VIN*%
X218850000Y-63500000D03*
%TD*%
D12*
%TO.P,R1,2,2*%
%TO.N,/VOUT*%
X215000000Y-70225000D03*
%TO.P,R1,1,1*%
%TO.N,Net-(U1-FB)*%
X216500000Y-70225000D03*
%TD*%
D13*
%TO.P,C3,2,2*%
%TO.N,Net-(D1-K)*%
X213500000Y-66225000D03*
%TO.P,C3,1,1*%
%TO.N,Net-(U1-BST)*%
X213500000Y-67625000D03*
%TD*%
D14*
%TO.P,C1,2,2*%
%TO.N,/VIN*%
X216550000Y-63400000D03*
%TO.P,C1,1,1*%
%TO.N,/GND*%
X214550000Y-63400000D03*
%TD*%
D15*
%TO.P,L1,2,2*%
%TO.N,Net-(D1-K)*%
X207350000Y-67070000D03*
%TO.P,L1,1,1*%
%TO.N,/VOUT*%
X207350000Y-73130000D03*
%TD*%
D16*
%TO.P,D1,2,A*%
%TO.N,/GND*%
X212500000Y-74650000D03*
%TO.P,D1,1,K*%
%TO.N,Net-(D1-K)*%
X212500000Y-70250000D03*
%TD*%
D12*
%TO.P,R2,2,2*%
%TO.N,Net-(U1-FB)*%
X218400000Y-70225000D03*
%TO.P,R2,1,1*%
%TO.N,/GND*%
X219900000Y-70225000D03*
%TD*%
D17*
%TO.P,C2,2,2*%
%TO.N,/VOUT*%
X214950000Y-72450000D03*
%TO.P,C2,1,1*%
%TO.N,/GND*%
X216350000Y-72450000D03*
%TD*%
D11*
%TO.P,R4,1,1*%
%TO.N,Net-(LED1-A)*%
X219100000Y-54100000D03*
%TO.P,R4,2,2*%
%TO.N,/VIN*%
X219100000Y-55600000D03*
%TD*%
D18*
%TO.P,LED2,1,A*%
%TO.N,Net-(LED2-A)*%
X222000000Y-85500000D03*
%TO.P,LED2,2,K*%
%TO.N,/GND*%
X222000000Y-83800000D03*
%TD*%
D11*
%TO.P,R5,1,1*%
%TO.N,Net-(LED2-A)*%
X219400000Y-85350000D03*
%TO.P,R5,2,2*%
%TO.N,/VOUT*%
X219400000Y-83850000D03*
%TD*%
D19*
%TO.P,U3,1,1*%
%TO.N,/GND*%
X209600000Y-90600000D03*
%TO.P,U3,2,2*%
%TO.N,/VOUT*%
X214600000Y-90600000D03*
%TD*%
%TO.P,U2,1,1*%
%TO.N,/VIN*%
X214600000Y-48050000D03*
%TO.P,U2,2,2*%
%TO.N,/GND*%
X209600000Y-48050000D03*
%TD*%
D18*
%TO.P,LED1,1,A*%
%TO.N,Net-(LED1-A)*%
X221350000Y-54100000D03*
%TO.P,LED1,2,K*%
%TO.N,/GND*%
X221350000Y-55800000D03*
%TD*%
D16*
%TO.P,D1,1,K*%
%TO.N,Net-(D1-K)*%
X185900000Y-73150000D03*
%TO.P,D1,2,A*%
%TO.N,/GND*%
X190300000Y-73150000D03*
%TD*%
D14*
%TO.P,C1,1,1*%
%TO.N,/GND*%
X187950000Y-63350000D03*
%TO.P,C1,2,2*%
%TO.N,/VIN*%
X189950000Y-63350000D03*
%TD*%
D13*
%TO.P,C3,2,2*%
%TO.N,Net-(D1-K)*%
X186900000Y-66175000D03*
%TO.P,C3,1,1*%
%TO.N,Net-(U1-BST)*%
X186900000Y-67575000D03*
%TD*%
D12*
%TO.P,R1,1,1*%
%TO.N,Net-(U1-FB)*%
X189900000Y-70175000D03*
%TO.P,R1,2,2*%
%TO.N,/VOUT*%
X188400000Y-70175000D03*
%TD*%
D17*
%TO.P,C2,2,2*%
%TO.N,/VOUT*%
X188200000Y-76575000D03*
%TO.P,C2,1,1*%
%TO.N,/GND*%
X189600000Y-76575000D03*
%TD*%
D12*
%TO.P,R2,1,1*%
%TO.N,/GND*%
X193300000Y-70175000D03*
%TO.P,R2,2,2*%
%TO.N,Net-(U1-FB)*%
X191800000Y-70175000D03*
%TD*%
D11*
%TO.P,R3,1,1*%
%TO.N,/VIN*%
X192250000Y-63450000D03*
%TO.P,R3,2,2*%
%TO.N,Net-(U1-EN)*%
X192250000Y-64950000D03*
%TD*%
D10*
%TO.P,U1,6,SW*%
%TO.N,Net-(D1-K)*%
X189000000Y-65575000D03*
%TO.P,U1,5,VIN*%
%TO.N,/VIN*%
X189950000Y-65575000D03*
%TO.P,U1,4,EN*%
%TO.N,Net-(U1-EN)*%
X190900000Y-65575000D03*
%TO.P,U1,3,FB*%
%TO.N,Net-(U1-FB)*%
X190900000Y-67875000D03*
%TO.P,U1,2,GND*%
%TO.N,/GND*%
X189950000Y-67875000D03*
%TO.P,U1,1,BST*%
%TO.N,Net-(U1-BST)*%
X189000000Y-67875000D03*
%TD*%
D15*
%TO.P,L1,2,2*%
%TO.N,Net-(D1-K)*%
X180400000Y-67700000D03*
%TO.P,L1,1,1*%
%TO.N,/VOUT*%
X180400000Y-73760000D03*
%TD*%
D18*
%TO.P,LED1,2,K*%
%TO.N,/GND*%
X194750000Y-55750000D03*
%TO.P,LED1,1,A*%
%TO.N,Net-(LED1-A)*%
X194750000Y-54050000D03*
%TD*%
D19*
%TO.P,U2,1,1*%
%TO.N,/VIN*%
X188000000Y-48000000D03*
%TO.P,U2,2,2*%
%TO.N,/GND*%
X183000000Y-48000000D03*
%TD*%
D11*
%TO.P,R5,2,2*%
%TO.N,/VOUT*%
X192800000Y-83800000D03*
%TO.P,R5,1,1*%
%TO.N,Net-(LED2-A)*%
X192800000Y-85300000D03*
%TD*%
%TO.P,R4,2,2*%
%TO.N,/VIN*%
X192500000Y-55550000D03*
%TO.P,R4,1,1*%
%TO.N,Net-(LED1-A)*%
X192500000Y-54050000D03*
%TD*%
D18*
%TO.P,LED2,1,A*%
%TO.N,Net-(LED2-A)*%
X195400000Y-85450000D03*
%TO.P,LED2,2,K*%
%TO.N,/GND*%
X195400000Y-83750000D03*
%TD*%
D19*
%TO.P,U3,1,1*%
%TO.N,/GND*%
X183000000Y-90550000D03*
%TO.P,U3,2,2*%
%TO.N,/VOUT*%
X188000000Y-90550000D03*
%TD*%
D20*
%TO.N,/GND*%
X211950000Y-76100000D03*
X211150000Y-76600000D03*
X210200000Y-77100000D03*
X209050000Y-77350000D03*
X219500000Y-71850000D03*
X218850000Y-72350000D03*
X218000000Y-72500000D03*
X221400000Y-79050000D03*
X220400000Y-78650000D03*
X220600000Y-79450000D03*
X219700000Y-58450000D03*
X220500000Y-58450000D03*
X221300000Y-58450000D03*
X184350000Y-62400000D03*
X185100000Y-63000000D03*
X189025000Y-68975000D03*
X189675000Y-68950000D03*
X192825000Y-72600000D03*
X186050000Y-63300000D03*
X193350000Y-71925000D03*
X192250000Y-73250000D03*
X194000000Y-79400000D03*
X194800000Y-79000000D03*
X193800000Y-78600000D03*
X194700000Y-58400000D03*
X193900000Y-58400000D03*
X193100000Y-58400000D03*
X210950000Y-62450000D03*
X211700000Y-63050000D03*
X212650000Y-63350000D03*
X215625000Y-69025000D03*
X216275000Y-69000000D03*
%TD*%
D21*
%TO.N,/VOUT*%
X214550000Y-87300000D02*
X214550000Y-90600000D01*
D22*
%TO.N,Net-(LED2-A)*%
X221850000Y-85350000D02*
X222000000Y-85500000D01*
D21*
%TO.N,/VOUT*%
X218000000Y-83850000D02*
X214550000Y-87300000D01*
%TO.N,/VIN*%
X217850000Y-55600000D02*
X214600000Y-52350000D01*
X219100000Y-55600000D02*
X217850000Y-55600000D01*
%TO.N,/VOUT*%
X219400000Y-83850000D02*
X218000000Y-83850000D01*
%TO.N,Net-(LED1-A)*%
X219100000Y-54100000D02*
X221350000Y-54100000D01*
%TO.N,Net-(LED2-A)*%
X219400000Y-85350000D02*
X221850000Y-85350000D01*
%TO.N,/VIN*%
X214600000Y-52350000D02*
X214600000Y-48050000D01*
%TO.N,Net-(LED2-A)*%
X192800000Y-85300000D02*
X195250000Y-85300000D01*
D22*
X195250000Y-85300000D02*
X195400000Y-85450000D01*
D21*
%TO.N,/VOUT*%
X192800000Y-83800000D02*
X191400000Y-83800000D01*
X191400000Y-83800000D02*
X187950000Y-87250000D01*
X187950000Y-87250000D02*
X187950000Y-90550000D01*
%TO.N,/VIN*%
X192500000Y-55550000D02*
X191250000Y-55550000D01*
X188000000Y-52300000D02*
X188000000Y-48000000D01*
X191250000Y-55550000D02*
X188000000Y-52300000D01*
%TO.N,Net-(LED1-A)*%
X192500000Y-54050000D02*
X194750000Y-54050000D01*
%TD*%
%TA.AperFunction,Conductor*%
%TO.N,/GND*%
G36*
X185096679Y-61669685D02*
G01*
X185098267Y-61670722D01*
X186521160Y-62616209D01*
X188527968Y-62648063D01*
X188594687Y-62668809D01*
X188639598Y-62722332D01*
X188650000Y-62772047D01*
X188650000Y-63926000D01*
X188630315Y-63993039D01*
X188577511Y-64038794D01*
X188526000Y-64050000D01*
X184726362Y-64050000D01*
X184659323Y-64030315D01*
X184638681Y-64013681D01*
X183536319Y-62911319D01*
X183502834Y-62849996D01*
X183500000Y-62823638D01*
X183500000Y-61774000D01*
X183519685Y-61706961D01*
X183572489Y-61661206D01*
X183624000Y-61650000D01*
X185029640Y-61650000D01*
X185096679Y-61669685D01*
G37*
%TD.AperFunction*%
%TD*%
%TA.AperFunction,Conductor*%
%TO.N,Net-(U1-EN)*%
G36*
X193043039Y-64519685D02*
G01*
X193088794Y-64572489D01*
X193100000Y-64624000D01*
X193100000Y-65448638D01*
X193080315Y-65515677D01*
X193063681Y-65536319D01*
X192536319Y-66063681D01*
X192474996Y-66097166D01*
X192448638Y-66100000D01*
X190724000Y-66100000D01*
X190656961Y-66080315D01*
X190611206Y-66027511D01*
X190600000Y-65976000D01*
X190600000Y-65101362D01*
X190619685Y-65034323D01*
X190636319Y-65013681D01*
X191113681Y-64536319D01*
X191175004Y-64502834D01*
X191201362Y-64500000D01*
X192976000Y-64500000D01*
X193043039Y-64519685D01*
G37*
%TD.AperFunction*%
%TD*%
%TA.AperFunction,Conductor*%
%TO.N,/VIN*%
G36*
X189393528Y-46619685D02*
G01*
X189439283Y-46672489D01*
X189450488Y-46723510D01*
X189499999Y-59249999D01*
X189500000Y-59250000D01*
X189511288Y-59260079D01*
X190858586Y-60463023D01*
X190895483Y-60522356D01*
X190900000Y-60555519D01*
X190900000Y-60750000D01*
X190900000Y-64032277D01*
X190900000Y-64276000D01*
X190880315Y-64343039D01*
X190827511Y-64388794D01*
X190776000Y-64400000D01*
X189174000Y-64400000D01*
X189106961Y-64380315D01*
X189061206Y-64327511D01*
X189050000Y-64276000D01*
X189050000Y-61799999D01*
X186586061Y-59321501D01*
X186552757Y-59260079D01*
X186550000Y-59234078D01*
X186550000Y-46724000D01*
X186569685Y-46656961D01*
X186622489Y-46611206D01*
X186674000Y-46600000D01*
X189326489Y-46600000D01*
X189393528Y-46619685D01*
G37*
%TD.AperFunction*%
%TD*%
%TA.AperFunction,Conductor*%
%TO.N,/VIN*%
G36*
X192594857Y-62933824D02*
G01*
X192658122Y-62963472D01*
X192695315Y-63022620D01*
X192700000Y-63056381D01*
X192700000Y-63737922D01*
X192680315Y-63804961D01*
X192627511Y-63850716D01*
X192588493Y-63861291D01*
X190900000Y-64032277D01*
X190900000Y-62673076D01*
X192594857Y-62933824D01*
G37*
%TD.AperFunction*%
%TD*%
%TA.AperFunction,Conductor*%
%TO.N,/VIN*%
G36*
X190250000Y-64524999D02*
G01*
X190250000Y-65926000D01*
X190230315Y-65993039D01*
X190177511Y-66038794D01*
X190126000Y-66050000D01*
X189774000Y-66050000D01*
X189706961Y-66030315D01*
X189661206Y-65977511D01*
X189650000Y-65926000D01*
X189650000Y-64525000D01*
X189525000Y-64400000D01*
X190374999Y-64400000D01*
X190250000Y-64524999D01*
G37*
%TD.AperFunction*%
%TD*%
%TA.AperFunction,Conductor*%
%TO.N,/VOUT*%
G36*
X182143039Y-72619685D02*
G01*
X182188794Y-72672489D01*
X182200000Y-72724000D01*
X182200000Y-74500000D01*
X183500000Y-75600000D01*
X188850000Y-75600000D01*
X188850000Y-77338643D01*
X188849802Y-77345647D01*
X188846727Y-77400000D01*
X188840166Y-77400000D01*
X188850000Y-75775000D01*
X187375000Y-75775000D01*
X186500000Y-75800000D01*
X186500000Y-77400000D01*
X180926362Y-77400000D01*
X180859323Y-77380315D01*
X180838681Y-77363681D01*
X178636319Y-75161319D01*
X178602834Y-75099996D01*
X178600000Y-75073638D01*
X178600000Y-72724000D01*
X178619685Y-72656961D01*
X178672489Y-72611206D01*
X178724000Y-72600000D01*
X182076000Y-72600000D01*
X182143039Y-72619685D01*
G37*
%TD.AperFunction*%
%TD*%
%TA.AperFunction,Conductor*%
%TO.N,Net-(D1-K)*%
G36*
X189176243Y-65124758D02*
G01*
X189243243Y-65144574D01*
X189288895Y-65197467D01*
X189300000Y-65248758D01*
X189300000Y-66101000D01*
X189280315Y-66168039D01*
X189227511Y-66213794D01*
X189176000Y-66225000D01*
X188075000Y-66225000D01*
X187585917Y-66690793D01*
X187523796Y-66722773D01*
X187500400Y-66725000D01*
X186331249Y-66725000D01*
X185650000Y-67406249D01*
X185650000Y-67406250D01*
X185650000Y-71900000D01*
X187126000Y-71900000D01*
X187193039Y-71919685D01*
X187238794Y-71972489D01*
X187250000Y-72024000D01*
X187250000Y-74451000D01*
X187230315Y-74518039D01*
X187177511Y-74563794D01*
X187126000Y-74575000D01*
X185650000Y-74575000D01*
X184535737Y-74575000D01*
X184468698Y-74555315D01*
X184448056Y-74538681D01*
X183986819Y-74077444D01*
X183953334Y-74016121D01*
X183950506Y-73988557D01*
X183969615Y-72024000D01*
X184000000Y-68900000D01*
X178624000Y-68900000D01*
X178556961Y-68880315D01*
X178511206Y-68827511D01*
X178500000Y-68776000D01*
X178500000Y-66550944D01*
X178519685Y-66483905D01*
X178536404Y-66463177D01*
X178899289Y-66101000D01*
X179859198Y-65142964D01*
X179920552Y-65109541D01*
X179947029Y-65106733D01*
X189176243Y-65124758D01*
G37*
%TD.AperFunction*%
%TD*%
%TA.AperFunction,Conductor*%
%TO.N,/GND*%
G36*
X194622385Y-78119685D02*
G01*
X194643027Y-78136319D01*
X195620487Y-79113779D01*
X195642018Y-79142735D01*
X196410822Y-80572500D01*
X196425610Y-80631225D01*
X196425610Y-83976000D01*
X196405925Y-84043039D01*
X196353121Y-84088794D01*
X196301610Y-84100000D01*
X194574000Y-84100000D01*
X194506961Y-84080315D01*
X194461206Y-84027511D01*
X194450000Y-83976000D01*
X194450000Y-80634167D01*
X193500359Y-79700353D01*
X193499619Y-79699619D01*
X193336319Y-79536319D01*
X193302834Y-79474996D01*
X193300000Y-79448638D01*
X193300000Y-78224000D01*
X193319685Y-78156961D01*
X193372489Y-78111206D01*
X193424000Y-78100000D01*
X194555346Y-78100000D01*
X194622385Y-78119685D01*
G37*
%TD.AperFunction*%
%TD*%
%TA.AperFunction,Conductor*%
%TO.N,/GND*%
G36*
X195243039Y-55319685D02*
G01*
X195288794Y-55372489D01*
X195300000Y-55424000D01*
X195300000Y-58273638D01*
X195280315Y-58340677D01*
X195263681Y-58361319D01*
X194661319Y-58963681D01*
X194599996Y-58997166D01*
X194573638Y-59000000D01*
X192724000Y-59000000D01*
X192656961Y-58980315D01*
X192611206Y-58927511D01*
X192600000Y-58876000D01*
X192600000Y-57926362D01*
X192619685Y-57859323D01*
X192636319Y-57838681D01*
X194300000Y-56175000D01*
X194300000Y-55424000D01*
X194319685Y-55356961D01*
X194372489Y-55311206D01*
X194424000Y-55300000D01*
X195176000Y-55300000D01*
X195243039Y-55319685D01*
G37*
%TD.AperFunction*%
%TD*%
%TA.AperFunction,Conductor*%
%TO.N,/VOUT*%
G36*
X188840338Y-77371544D02*
G01*
X188840338Y-77371545D01*
X188776485Y-87923352D01*
X188776486Y-87923359D01*
X188909458Y-88329633D01*
X188909458Y-88329634D01*
X188909459Y-88329634D01*
X190155727Y-92137429D01*
X190157872Y-92207266D01*
X190121920Y-92267176D01*
X190059285Y-92298138D01*
X190037878Y-92300000D01*
X186624000Y-92300000D01*
X186556961Y-92280315D01*
X186511206Y-92227511D01*
X186500000Y-92176000D01*
X186500000Y-77400000D01*
X186500000Y-75800000D01*
X187375000Y-75775000D01*
X188850000Y-75775000D01*
X188840338Y-77371544D01*
G37*
%TD.AperFunction*%
%TD*%
%TA.AperFunction,Conductor*%
%TO.N,/GND*%
G36*
X190218039Y-67394685D02*
G01*
X190263794Y-67447489D01*
X190275000Y-67499000D01*
X190275000Y-68811138D01*
X190255315Y-68878177D01*
X190238681Y-68898819D01*
X189873819Y-69263681D01*
X189812496Y-69297166D01*
X189786138Y-69300000D01*
X188788862Y-69300000D01*
X188759421Y-69291355D01*
X188729435Y-69284832D01*
X188724419Y-69281077D01*
X188721823Y-69280315D01*
X188701181Y-69263681D01*
X188561319Y-69123819D01*
X188527834Y-69062496D01*
X188525000Y-69036138D01*
X188525000Y-68948237D01*
X188544685Y-68881198D01*
X188561319Y-68860556D01*
X188735556Y-68686319D01*
X188796879Y-68652834D01*
X188823237Y-68650000D01*
X189306250Y-68650000D01*
X189600000Y-68356250D01*
X189600000Y-67499000D01*
X189619685Y-67431961D01*
X189672489Y-67386206D01*
X189724000Y-67375000D01*
X190151000Y-67375000D01*
X190218039Y-67394685D01*
G37*
%TD.AperFunction*%
%TD*%
%TA.AperFunction,Conductor*%
%TO.N,/GND*%
G36*
X194102700Y-69418529D02*
G01*
X194169462Y-69439130D01*
X194214489Y-69492555D01*
X194225000Y-69542517D01*
X194225000Y-72617388D01*
X194205315Y-72684427D01*
X194188681Y-72705069D01*
X192587296Y-74306453D01*
X192582585Y-74309601D01*
X191400000Y-75492186D01*
X191400000Y-76736138D01*
X191380315Y-76803177D01*
X191363681Y-76823819D01*
X190848819Y-77338681D01*
X190787496Y-77372166D01*
X190761138Y-77375000D01*
X189275021Y-77375000D01*
X189207982Y-77355315D01*
X189162227Y-77302511D01*
X189151025Y-77249984D01*
X189159892Y-76168063D01*
X189173556Y-74501057D01*
X189193790Y-74434183D01*
X189210226Y-74414040D01*
X189300000Y-74325000D01*
X189299998Y-74325000D01*
X189299999Y-74324999D01*
X189278246Y-74272176D01*
X189261206Y-74252511D01*
X189250000Y-74201000D01*
X189250000Y-71949000D01*
X189269685Y-71881961D01*
X189322489Y-71836206D01*
X189374000Y-71825000D01*
X191718750Y-71825000D01*
X192700000Y-70843750D01*
X192700000Y-69525024D01*
X192719685Y-69457985D01*
X192772489Y-69412230D01*
X192825694Y-69401036D01*
X194102700Y-69418529D01*
G37*
%TD.AperFunction*%
%TD*%
%TA.AperFunction,Conductor*%
%TO.N,/VOUT*%
G36*
X188793039Y-69694685D02*
G01*
X188838794Y-69747489D01*
X188850000Y-69799000D01*
X188850000Y-75600000D01*
X187775000Y-75600000D01*
X187775000Y-69799000D01*
X187794685Y-69731961D01*
X187847489Y-69686206D01*
X187899000Y-69675000D01*
X188726000Y-69675000D01*
X188793039Y-69694685D01*
G37*
%TD.AperFunction*%
%TD*%
%TA.AperFunction,Conductor*%
%TO.N,Net-(U1-BST)*%
G36*
X188371927Y-67044685D02*
G01*
X188392569Y-67061319D01*
X188681250Y-67350000D01*
X189151000Y-67350000D01*
X189218039Y-67369685D01*
X189263794Y-67422489D01*
X189275000Y-67474000D01*
X189275000Y-68276000D01*
X189255315Y-68343039D01*
X189202511Y-68388794D01*
X189151000Y-68400000D01*
X186374000Y-68400000D01*
X186306961Y-68380315D01*
X186261206Y-68327511D01*
X186250000Y-68276000D01*
X186250000Y-67149000D01*
X186269685Y-67081961D01*
X186322489Y-67036206D01*
X186374000Y-67025000D01*
X188304888Y-67025000D01*
X188371927Y-67044685D01*
G37*
%TD.AperFunction*%
%TD*%
%TA.AperFunction,Conductor*%
%TO.N,Net-(U1-FB)*%
G36*
X191193039Y-67294685D02*
G01*
X191238794Y-67347489D01*
X191250000Y-67399000D01*
X191250000Y-69700000D01*
X192101000Y-69700000D01*
X192168039Y-69719685D01*
X192213794Y-69772489D01*
X192225000Y-69824000D01*
X192225000Y-70551000D01*
X192205315Y-70618039D01*
X192152511Y-70663794D01*
X192101000Y-70675000D01*
X189574000Y-70675000D01*
X189506961Y-70655315D01*
X189461206Y-70602511D01*
X189450000Y-70551000D01*
X189450000Y-69799000D01*
X189469685Y-69731961D01*
X189522489Y-69686206D01*
X189574000Y-69675000D01*
X190550000Y-69675000D01*
X190550000Y-67399000D01*
X190569685Y-67331961D01*
X190622489Y-67286206D01*
X190674000Y-67275000D01*
X191126000Y-67275000D01*
X191193039Y-67294685D01*
G37*
%TD.AperFunction*%
%TD*%
%TA.AperFunction,Conductor*%
%TO.N,/GND*%
G36*
X216818039Y-67444685D02*
G01*
X216863794Y-67497489D01*
X216875000Y-67549000D01*
X216875000Y-68861138D01*
X216855315Y-68928177D01*
X216838681Y-68948819D01*
X216473819Y-69313681D01*
X216412496Y-69347166D01*
X216386138Y-69350000D01*
X215388862Y-69350000D01*
X215359421Y-69341355D01*
X215329435Y-69334832D01*
X215324419Y-69331077D01*
X215321823Y-69330315D01*
X215301181Y-69313681D01*
X215161319Y-69173819D01*
X215127834Y-69112496D01*
X215125000Y-69086138D01*
X215125000Y-68998237D01*
X215144685Y-68931198D01*
X215161319Y-68910556D01*
X215335556Y-68736319D01*
X215396879Y-68702834D01*
X215423237Y-68700000D01*
X215906250Y-68700000D01*
X216200000Y-68406250D01*
X216200000Y-67549000D01*
X216219685Y-67481961D01*
X216272489Y-67436206D01*
X216324000Y-67425000D01*
X216751000Y-67425000D01*
X216818039Y-67444685D01*
G37*
%TD.AperFunction*%
%TD*%
%TA.AperFunction,Conductor*%
%TO.N,/VOUT*%
G36*
X215393039Y-69744685D02*
G01*
X215438794Y-69797489D01*
X215450000Y-69849000D01*
X215450000Y-75850000D01*
X214375000Y-75850000D01*
X214375000Y-69849000D01*
X214394685Y-69781961D01*
X214447489Y-69736206D01*
X214499000Y-69725000D01*
X215326000Y-69725000D01*
X215393039Y-69744685D01*
G37*
%TD.AperFunction*%
%TD*%
%TA.AperFunction,Conductor*%
%TO.N,Net-(D1-K)*%
G36*
X215776243Y-65174758D02*
G01*
X215843243Y-65194574D01*
X215888895Y-65247467D01*
X215900000Y-65298758D01*
X215900000Y-66151000D01*
X215880315Y-66218039D01*
X215827511Y-66263794D01*
X215776000Y-66275000D01*
X214675000Y-66275000D01*
X214185917Y-66740793D01*
X214123796Y-66772773D01*
X214100400Y-66775000D01*
X212931249Y-66775000D01*
X212252189Y-67454060D01*
X212247729Y-67458305D01*
X210635429Y-68917926D01*
X210572519Y-68948325D01*
X210552208Y-68950000D01*
X205224000Y-68950000D01*
X205156961Y-68930315D01*
X205111206Y-68877511D01*
X205100000Y-68826000D01*
X205100000Y-65902999D01*
X205119685Y-65835960D01*
X205136404Y-65815232D01*
X205653888Y-65298758D01*
X205761254Y-65191601D01*
X205822608Y-65158178D01*
X205849085Y-65155370D01*
X215776243Y-65174758D01*
G37*
%TD.AperFunction*%
%TD*%
%TA.AperFunction,Conductor*%
%TO.N,Net-(U1-BST)*%
G36*
X214971927Y-67094685D02*
G01*
X214992569Y-67111319D01*
X215281250Y-67400000D01*
X215751000Y-67400000D01*
X215818039Y-67419685D01*
X215863794Y-67472489D01*
X215875000Y-67524000D01*
X215875000Y-68326000D01*
X215855315Y-68393039D01*
X215802511Y-68438794D01*
X215751000Y-68450000D01*
X212974000Y-68450000D01*
X212906961Y-68430315D01*
X212861206Y-68377511D01*
X212850000Y-68326000D01*
X212850000Y-67199000D01*
X212869685Y-67131961D01*
X212922489Y-67086206D01*
X212974000Y-67075000D01*
X214904888Y-67075000D01*
X214971927Y-67094685D01*
G37*
%TD.AperFunction*%
%TD*%
%TA.AperFunction,Conductor*%
%TO.N,/VOUT*%
G36*
X214375000Y-73250000D02*
G01*
X210387500Y-73250000D01*
X210387499Y-73250000D01*
X209857838Y-73762934D01*
X209236061Y-74365077D01*
X209174211Y-74397573D01*
X209149800Y-74400000D01*
X205524000Y-74400000D01*
X205456961Y-74380315D01*
X205411206Y-74327511D01*
X205400000Y-74276000D01*
X205400000Y-71974000D01*
X205419685Y-71906961D01*
X205472489Y-71861206D01*
X205524000Y-71850000D01*
X214375000Y-71850000D01*
X214375000Y-73250000D01*
G37*
%TD.AperFunction*%
%TD*%
%TA.AperFunction,Conductor*%
%TO.N,Net-(U1-EN)*%
G36*
X219643039Y-64569685D02*
G01*
X219688794Y-64622489D01*
X219700000Y-64674000D01*
X219700000Y-65498638D01*
X219680315Y-65565677D01*
X219663681Y-65586319D01*
X219136319Y-66113681D01*
X219074996Y-66147166D01*
X219048638Y-66150000D01*
X217324000Y-66150000D01*
X217256961Y-66130315D01*
X217211206Y-66077511D01*
X217200000Y-66026000D01*
X217200000Y-65151362D01*
X217219685Y-65084323D01*
X217236319Y-65063681D01*
X217713681Y-64586319D01*
X217775004Y-64552834D01*
X217801362Y-64550000D01*
X219576000Y-64550000D01*
X219643039Y-64569685D01*
G37*
%TD.AperFunction*%
%TD*%
%TA.AperFunction,Conductor*%
%TO.N,/VIN*%
G36*
X216850000Y-64574999D02*
G01*
X216850000Y-65976000D01*
X216830315Y-66043039D01*
X216777511Y-66088794D01*
X216726000Y-66100000D01*
X216374000Y-66100000D01*
X216306961Y-66080315D01*
X216261206Y-66027511D01*
X216250000Y-65976000D01*
X216250000Y-64575000D01*
X216125000Y-64450000D01*
X216974999Y-64450000D01*
X216850000Y-64574999D01*
G37*
%TD.AperFunction*%
%TD*%
%TA.AperFunction,Conductor*%
%TO.N,/GND*%
G36*
X211696679Y-61719685D02*
G01*
X211698267Y-61720722D01*
X213121160Y-62666209D01*
X215127968Y-62698063D01*
X215194687Y-62718809D01*
X215239598Y-62772332D01*
X215250000Y-62822047D01*
X215250000Y-63976000D01*
X215230315Y-64043039D01*
X215177511Y-64088794D01*
X215126000Y-64100000D01*
X211326362Y-64100000D01*
X211259323Y-64080315D01*
X211238681Y-64063681D01*
X210136319Y-62961319D01*
X210102834Y-62899996D01*
X210100000Y-62873638D01*
X210100000Y-61824000D01*
X210119685Y-61756961D01*
X210172489Y-61711206D01*
X210224000Y-61700000D01*
X211629640Y-61700000D01*
X211696679Y-61719685D01*
G37*
%TD.AperFunction*%
%TD*%
%TA.AperFunction,Conductor*%
%TO.N,/VIN*%
G36*
X219200917Y-63079675D02*
G01*
X219262634Y-63112430D01*
X219296845Y-63173351D01*
X219300000Y-63201146D01*
X219300000Y-63787922D01*
X219280315Y-63854961D01*
X219227511Y-63900716D01*
X219188493Y-63911291D01*
X217500000Y-64082277D01*
X217500000Y-62730769D01*
X219200917Y-63079675D01*
G37*
%TD.AperFunction*%
%TD*%
%TA.AperFunction,Conductor*%
%TO.N,/VIN*%
G36*
X215993039Y-46669685D02*
G01*
X216038794Y-46722489D01*
X216050000Y-46774000D01*
X216050000Y-58982852D01*
X216049999Y-58982852D01*
X217469927Y-60630289D01*
X217498784Y-60693921D01*
X217500000Y-60711244D01*
X217500000Y-64082277D01*
X217500000Y-64326000D01*
X217480315Y-64393039D01*
X217427511Y-64438794D01*
X217376000Y-64450000D01*
X215774000Y-64450000D01*
X215706961Y-64430315D01*
X215661206Y-64377511D01*
X215650000Y-64326000D01*
X215650000Y-62002273D01*
X215649999Y-62002272D01*
X213187852Y-59624063D01*
X213153309Y-59563330D01*
X213150000Y-59534875D01*
X213150000Y-46774000D01*
X213169685Y-46706961D01*
X213222489Y-46661206D01*
X213274000Y-46650000D01*
X215926000Y-46650000D01*
X215993039Y-46669685D01*
G37*
%TD.AperFunction*%
%TD*%
%TA.AperFunction,Conductor*%
%TO.N,Net-(U1-FB)*%
G36*
X217793039Y-67344685D02*
G01*
X217838794Y-67397489D01*
X217850000Y-67449000D01*
X217850000Y-69750000D01*
X218701000Y-69750000D01*
X218768039Y-69769685D01*
X218813794Y-69822489D01*
X218825000Y-69874000D01*
X218825000Y-70601000D01*
X218805315Y-70668039D01*
X218752511Y-70713794D01*
X218701000Y-70725000D01*
X216174000Y-70725000D01*
X216106961Y-70705315D01*
X216061206Y-70652511D01*
X216050000Y-70601000D01*
X216050000Y-69849000D01*
X216069685Y-69781961D01*
X216122489Y-69736206D01*
X216174000Y-69725000D01*
X217150000Y-69725000D01*
X217150000Y-67449000D01*
X217169685Y-67381961D01*
X217222489Y-67336206D01*
X217274000Y-67325000D01*
X217726000Y-67325000D01*
X217793039Y-67344685D01*
G37*
%TD.AperFunction*%
%TD*%
%TA.AperFunction,Conductor*%
%TO.N,/GND*%
G36*
X221843039Y-55369685D02*
G01*
X221888794Y-55422489D01*
X221900000Y-55474000D01*
X221900000Y-58323638D01*
X221880315Y-58390677D01*
X221863681Y-58411319D01*
X221261319Y-59013681D01*
X221199996Y-59047166D01*
X221173638Y-59050000D01*
X219324000Y-59050000D01*
X219256961Y-59030315D01*
X219211206Y-58977511D01*
X219200000Y-58926000D01*
X219200000Y-57976362D01*
X219219685Y-57909323D01*
X219236319Y-57888681D01*
X220900000Y-56225000D01*
X220900000Y-55474000D01*
X220919685Y-55406961D01*
X220972489Y-55361206D01*
X221024000Y-55350000D01*
X221776000Y-55350000D01*
X221843039Y-55369685D01*
G37*
%TD.AperFunction*%
%TD*%
%TA.AperFunction,Conductor*%
%TO.N,/VOUT*%
G36*
X215746457Y-75869685D02*
G01*
X215792212Y-75922489D01*
X215803370Y-75970534D01*
X216257802Y-92222534D01*
X216239998Y-92290098D01*
X216188494Y-92337311D01*
X216133850Y-92350000D01*
X213224000Y-92350000D01*
X213156961Y-92330315D01*
X213111206Y-92277511D01*
X213100000Y-92226000D01*
X213100000Y-78368852D01*
X213110555Y-78318790D01*
X214167372Y-75923938D01*
X214212446Y-75870552D01*
X214279228Y-75850010D01*
X214280817Y-75850000D01*
X214375000Y-75850000D01*
X215450000Y-75850000D01*
X215679418Y-75850000D01*
X215746457Y-75869685D01*
G37*
%TD.AperFunction*%
%TD*%
%TA.AperFunction,Conductor*%
%TO.N,/GND*%
G36*
X221222385Y-78169685D02*
G01*
X221243027Y-78186319D01*
X222220487Y-79163779D01*
X222242018Y-79192735D01*
X223010822Y-80622500D01*
X223025610Y-80681225D01*
X223025610Y-84026000D01*
X223005925Y-84093039D01*
X222953121Y-84138794D01*
X222901610Y-84150000D01*
X221174000Y-84150000D01*
X221106961Y-84130315D01*
X221061206Y-84077511D01*
X221050000Y-84026000D01*
X221050000Y-80684167D01*
X220100359Y-79750353D01*
X220099619Y-79749619D01*
X219936319Y-79586319D01*
X219902834Y-79524996D01*
X219900000Y-79498638D01*
X219900000Y-78274000D01*
X219919685Y-78206961D01*
X219972489Y-78161206D01*
X220024000Y-78150000D01*
X221155346Y-78150000D01*
X221222385Y-78169685D01*
G37*
%TD.AperFunction*%
%TD*%
%TA.AperFunction,Conductor*%
%TO.N,/GND*%
G36*
X220493039Y-69769685D02*
G01*
X220538794Y-69822489D01*
X220550000Y-69874000D01*
X220550000Y-71698638D01*
X220530315Y-71765677D01*
X220513681Y-71786319D01*
X218986319Y-73313681D01*
X218924996Y-73347166D01*
X218898638Y-73350000D01*
X215874000Y-73350000D01*
X215806961Y-73330315D01*
X215761206Y-73277511D01*
X215750000Y-73226000D01*
X215750000Y-71824000D01*
X215769685Y-71756961D01*
X215822489Y-71711206D01*
X215874000Y-71700000D01*
X218487500Y-71700000D01*
X219300000Y-70887500D01*
X219300000Y-70250000D01*
X219300000Y-69874000D01*
X219319685Y-69806961D01*
X219372489Y-69761206D01*
X219424000Y-69750000D01*
X220426000Y-69750000D01*
X220493039Y-69769685D01*
G37*
%TD.AperFunction*%
%TD*%
%TA.AperFunction,Conductor*%
%TO.N,/GND*%
G36*
X213543039Y-73619685D02*
G01*
X213588794Y-73672489D01*
X213600000Y-73724000D01*
X213600000Y-75719258D01*
X213585640Y-75777181D01*
X213396048Y-76136051D01*
X213350414Y-76184332D01*
X210533177Y-77882204D01*
X210469171Y-77900000D01*
X208524000Y-77900000D01*
X208456961Y-77880315D01*
X208411206Y-77827511D01*
X208400000Y-77776000D01*
X208400000Y-76724000D01*
X208419685Y-76656961D01*
X208472489Y-76611206D01*
X208524000Y-76600000D01*
X208841501Y-76600000D01*
X208841502Y-76600000D01*
X211400000Y-75204542D01*
X211400000Y-73724000D01*
X211419685Y-73656961D01*
X211472489Y-73611206D01*
X211524000Y-73600000D01*
X213476000Y-73600000D01*
X213543039Y-73619685D01*
G37*
%TD.AperFunction*%
%TD*%
D23*
X211950000Y-76100000D03*
X211150000Y-76600000D03*
X210200000Y-77100000D03*
X209050000Y-77350000D03*
X219500000Y-71850000D03*
X218850000Y-72350000D03*
X218000000Y-72500000D03*
X221400000Y-79050000D03*
X220400000Y-78650000D03*
X220600000Y-79450000D03*
X219700000Y-58450000D03*
X220500000Y-58450000D03*
X221300000Y-58450000D03*
X184350000Y-62400000D03*
X185100000Y-63000000D03*
X189025000Y-68975000D03*
X189675000Y-68950000D03*
X192825000Y-72600000D03*
X186050000Y-63300000D03*
X193350000Y-71925000D03*
X192250000Y-73250000D03*
X194000000Y-79400000D03*
X194800000Y-79000000D03*
X193800000Y-78600000D03*
X194700000Y-58400000D03*
X193900000Y-58400000D03*
X193100000Y-58400000D03*
X210950000Y-62450000D03*
X211700000Y-63050000D03*
X212650000Y-63350000D03*
X215625000Y-69025000D03*
X216275000Y-69000000D03*
D24*
X209600000Y-90600000D03*
X214600000Y-90600000D03*
X214600000Y-48050000D03*
X209600000Y-48050000D03*
X188000000Y-48000000D03*
X183000000Y-48000000D03*
X183000000Y-90550000D03*
X188000000Y-90550000D03*
M02*
