M48
METRIC,TZ
T1C0.300
T2C1.400
%
G90
G05
T1
X184350Y-62400
X185100Y-63000
X186050Y-63300
X189025Y-68975
X189675Y-68950
X192250Y-73250
X192825Y-72600
X193100Y-58400
X193350Y-71925
X193800Y-78600
X193900Y-58400
X194000Y-79400
X194700Y-58400
X194800Y-79000
X209050Y-77350
X210200Y-77100
X210950Y-62450
X211150Y-76600
X211700Y-63050
X211950Y-76100
X212650Y-63350
X215625Y-69025
X216275Y-69000
X218000Y-72500
X218850Y-72350
X219500Y-71850
X219700Y-58450
X220400Y-78650
X220500Y-58450
X220600Y-79450
X221300Y-58450
X221400Y-79050
T2
X183000Y-48000
X183000Y-90550
X188000Y-48000
X188000Y-90550
X209600Y-48050
X209600Y-90600
X214600Y-48050
X214600Y-90600
M30
